<?xml version="1.0" encoding="utf-8"?>
<!-- Generator: Adobe Illustrator 20.0.0, SVG Export Plug-In . SVG Version: 6.00 Build 0)  -->
<svg version="1.1" id="Layer_1" xmlns="http://www.w3.org/2000/svg" xmlns:xlink="http://www.w3.org/1999/xlink" x="0px" y="0px"
	 viewBox="0 0 146 222" style="enable-background:new 0 0 146 222;" xml:space="preserve">
<style type="text/css">
	.st0{clip-path:url(#SVGID_2_);}
	.st1{clip-path:url(#SVGID_4_);fill:#FFFFFF;}
	.st2{clip-path:url(#SVGID_6_);fill:#FFFFFF;}
</style>
<g>
	<defs>
		<rect id="SVGID_1_" x="0.1" width="145.9" height="221.9"/>
	</defs>
	<clipPath id="SVGID_2_">
		<use xlink:href="#SVGID_1_"  style="overflow:visible;"/>
	</clipPath>
	<g class="st0">
		<defs>
			<rect id="SVGID_3_" width="146" height="222"/>
		</defs>
		<clipPath id="SVGID_4_">
			<use xlink:href="#SVGID_3_"  style="overflow:visible;"/>
		</clipPath>
		<path class="st1" d="M88.4,9.8v44.1c-4.2,3.4-8.6,6.9-10.5,8.3H67.7c-1.8-1.3-6.2-4.8-10.2-8.2V9.8H88.4z M136.3,211.4H9.6V28.3
			h38.3v27.9c0,1.4,0.6,2.7,1.7,3.7c14,11.9,14.9,11.9,16.8,11.9h12.7c1.9,0,2.7,0,17.1-11.9c1.1-0.9,1.7-2.3,1.7-3.7V28.3h38.3
			V211.4z M141.1,18.7H98V5c0-2.7-2.2-4.8-4.8-4.8H52.7c-2.6,0-4.8,2.1-4.8,4.8v13.7H4.8c-2.7,0-4.8,2.1-4.8,4.8v192.7
			c0,2.6,2.1,4.8,4.8,4.8h136.3c2.6,0,4.8-2.2,4.8-4.8V23.5C145.9,20.9,143.7,18.7,141.1,18.7z"/>
	</g>
</g>
<g>
	<defs>
		<rect id="SVGID_5_" width="146" height="222"/>
	</defs>
	<clipPath id="SVGID_6_">
		<use xlink:href="#SVGID_5_"  style="overflow:visible;"/>
	</clipPath>
	<path class="st2" d="M64.6,20c0,2.7,2.1,4.8,4.8,4.8h7c2.6,0,4.8-2.1,4.8-4.8c0-2.6-2.2-4.8-4.8-4.8h-7
		C66.8,15.2,64.6,17.3,64.6,20z"/>
	<path class="st2" d="M72.9,97.1c10.7,0,19.3,8.7,19.3,19.3c0,10.7-8.7,19.3-19.3,19.3c-10.7,0-19.3-8.7-19.3-19.3
		C53.6,105.8,62.3,97.1,72.9,97.1z M72.9,145.4c16,0,28.9-13,28.9-28.9c0-16-13-28.9-28.9-28.9c-16,0-28.9,13-28.9,28.9
		C44,132.4,57,145.4,72.9,145.4z"/>
	<path class="st2" d="M108.4,167.9v18.2H77.7v-24.4h24.5C105.6,161.8,108.4,164.5,108.4,167.9z M37.5,167.9c0-3.4,2.8-6.2,6.2-6.2
		h24.5v24.4H37.5V167.9z M27.9,167.9v23c0,2.7,2.1,4.8,4.8,4.8h80.5c2.6,0,4.8-2.1,4.8-4.8v-23c0-8.7-7.1-15.8-15.8-15.8H43.7
		C35,152.2,27.9,159.2,27.9,167.9z"/>
</g>
</svg>
