<?xml version="1.0" encoding="utf-8"?>
<!-- Generator: Adobe Illustrator 20.1.0, SVG Export Plug-In . SVG Version: 6.00 Build 0)  -->
<svg version="1.1" id="Page_1" xmlns="http://www.w3.org/2000/svg" xmlns:xlink="http://www.w3.org/1999/xlink" x="0px" y="0px"
	 viewBox="0 0 61.8 74.8" style="enable-background:new 0 0 61.8 74.8;" xml:space="preserve">
<style type="text/css">
	.st0{fill:#FFFFFF;}
</style>
<g>
	<path class="st0" d="M0.6,58.9C0.6,58.9,0.7,58.9,0.6,58.9c0.1,0.1,0.2,0.1,0.2,0.2C3.3,61.7,6,64.1,9,66.1c1.5,1,3.1,2,4.8,2.7
		c1.4,0.7,2.8,1.2,4.2,1.6c0.8,0.2,1.6,0.4,2.4,0.6c0.5,0.1,0.9,0.2,1.4,0.2c0.2,0,0.4,0,0.6,0.1c0.3,0,0.6,0.1,0.9,0.1
		c0.5,0,1,0,1.5,0c0.1,0,0.1,0,0.2,0c0.5,0,0.9-0.1,1.3-0.1c0.5-0.1,1-0.2,1.5-0.4c0.4-0.1,0.8-0.3,1.2-0.5c0.4-0.2,0.8-0.5,1.1-0.9
		c0.3-0.3,0.5-0.7,0.7-1.2c0-0.1,0.1-0.2,0.1-0.4c0-0.1,0-0.1,0.1-0.2c0,0,0,0,0,0c0,0,0,0,0,0c0,0,0,0.1,0,0.1
		c0.2,0.7,0.5,1.2,1,1.7c0.4,0.4,0.8,0.7,1.3,0.9c0.5,0.2,1,0.4,1.5,0.5c0.4,0.1,0.8,0.2,1.2,0.2c0.4,0.1,0.9,0.1,1.4,0.1
		c0.3,0,0.7,0,1,0c0.4,0,0.7,0,1.1-0.1c0.2,0,0.4,0,0.5-0.1c0.5-0.1,1.1-0.1,1.6-0.2c0.4-0.1,0.9-0.2,1.3-0.3
		c0.3-0.1,0.5-0.1,0.8-0.2c2.4-0.7,4.7-1.7,6.9-2.9c2.1-1.2,4.1-2.5,6-4c1.4-1.1,2.7-2.3,3.9-3.6c0.2-0.2,0.4-0.5,0.6-0.7
		c0,0,0.1-0.1,0.1-0.1l0,0c0,0,0,0.1,0,0.1c0,0.1-0.1,0.1-0.1,0.2c-0.8,1-1.7,1.9-2.6,2.8c-1.9,1.9-4,3.7-6.2,5.3
		c-2,1.4-4.1,2.7-6.3,3.7c-1.7,0.8-3.5,1.5-5.3,2c-0.9,0.3-1.8,0.5-2.7,0.6c-0.5,0.1-1,0.2-1.6,0.3c-0.5,0.1-0.9,0.1-1.4,0.2
		c-0.3,0-0.5,0-0.8,0.1c-0.1,0-0.2,0-0.2,0c-2,0-3.9,0-5.9,0c-0.1,0-0.1,0-0.2,0c-0.3,0-0.6,0-0.9-0.1c-0.2,0-0.4,0-0.7-0.1
		c-0.2,0-0.3,0-0.5-0.1c-0.4-0.1-0.9-0.1-1.3-0.2c-0.5-0.1-1-0.2-1.5-0.3c-1.2-0.3-2.3-0.6-3.5-1c-2.4-0.8-4.7-1.9-6.9-3.2
		c-1.9-1.1-3.6-2.3-5.3-3.7c-1.7-1.4-3.3-2.8-4.8-4.4c-0.7-0.7-1.3-1.4-1.9-2.2C0.7,59.1,0.6,59,0.6,58.9C0.6,59,0.6,58.9,0.6,58.9
		L0.6,58.9z"/>
	<path class="st0" d="M34.1,68.4C34.1,68.4,34.2,68.4,34.1,68.4c0.1-0.1,0.2-0.1,0.3-0.1c1.8-0.4,3.5-1,5.2-1.7c1-0.4,2-0.9,2.9-1.5
		c0.7-0.4,1.4-0.9,2-1.5c0.7-0.6,1.3-1.3,1.8-2.1c0.5-0.8,0.9-1.6,1.1-2.5c0.1-0.4,0.2-0.9,0.2-1.3c0-0.4,0-0.8,0-1.2
		c0-0.3,0-0.6-0.1-0.9c-0.1-0.4-0.1-0.9-0.2-1.3c-0.2-0.7-0.4-1.4-0.7-2.1c0,0,0-0.1,0-0.1c-0.2-0.4-0.4-0.9-0.6-1.3
		c-1.2-3-2.5-5.9-3.7-8.9c-2.5-6-5-11.9-7.5-17.9c-1.6-3.9-3.3-7.8-4.9-11.7c0-0.1,0-0.1-0.1-0.2c0,0,0,0-0.1-0.1
		c0,0.1-0.1,0.1-0.1,0.2c-0.7,1.8-1.3,3.6-2,5.3c-1.3,3.7-2.7,7.3-4,11c-1.3,3.5-2.5,6.9-3.8,10.4c-1.1,3.1-2.3,6.3-3.4,9.4
		c-0.4,1.2-0.8,2.4-1.3,3.6c-0.1,0.4-0.3,0.7-0.4,1.1c-0.2,0.5-0.3,1.1-0.4,1.6c-0.1,0.7-0.1,1.4-0.1,2c0.1,1.4,0.5,2.6,1.1,3.8
		c0.4,0.7,0.9,1.3,1.4,1.9c0.7,0.8,1.5,1.4,2.3,2c0.9,0.7,1.9,1.2,3,1.7c1.4,0.7,2.8,1.2,4.3,1.6c0.4,0.1,0.9,0.2,1.3,0.4
		c0.1,0,0.1,0,0.2,0.1c0,0,0,0-0.1,0c-0.4-0.1-0.9-0.1-1.3-0.2c-0.5-0.1-1-0.2-1.6-0.3c-1.4-0.3-2.9-0.7-4.3-1.2
		c-2.6-0.9-5.1-2-7.5-3.5c-1.6-0.9-3-2-4.4-3.2c-0.5-0.4-1-0.9-1.5-1.4c-0.7-0.7-1.6-1.2-2.6-1.5C5,57.1,4.6,57.1,4.3,57
		c-0.2,0-0.5,0-0.7,0c-0.6,0-1.1,0.1-1.6,0.3c-0.1,0-0.1,0-0.2,0.1c0,0,0,0,0,0c0,0,0,0,0,0c0,0,0-0.1,0-0.1
		c0.4-0.8,0.7-1.7,0.9-2.5c0.1-0.5,0.2-1,0.3-1.5c0.1-0.4,0.1-0.8,0.1-1.2c0-0.5,0-1,0-1.4c0-0.4,0-0.9-0.1-1.3c0-0.3-0.1-0.7-0.1-1
		c-0.1-0.5-0.2-0.9-0.3-1.4c-0.3-1.1-0.6-2.3-1.1-3.3c0-0.1,0-0.1-0.1-0.2c0,0,0,0,0,0c0,0,0,0,0,0c0,0,0.1,0,0.1,0.1
		c1.1,0.7,2.2,1.2,3.4,1.4C5.4,44.9,5.8,45,6.2,45c0.2,0,0.4,0,0.6,0c1.4,0,2.7-0.3,3.9-1c0.8-0.4,1.5-1,2.2-1.6
		c0.7-0.7,1.3-1.4,1.8-2.2c0.6-0.9,1.1-1.9,1.6-2.9c0.2-0.4,0.4-0.8,0.5-1.3c2.2-5.6,4.5-11.1,6.7-16.7c2-5,4-9.9,6-14.9
		c0.5-1.3,1-2.5,1.5-3.8c0-0.1,0-0.1,0.1-0.2c0,0,0,0,0,0c0.1,0.1,0.1,0.2,0.1,0.2c0.4,1,0.8,2,1.2,3c2.2,5.5,4.4,10.9,6.6,16.4
		c1.8,4.5,3.6,9,5.4,13.5c0.2,0.5,0.4,1,0.6,1.5c0.2,0.5,0.4,0.9,0.6,1.4c0.4,0.9,0.9,1.7,1.4,2.6c0.5,0.7,1.1,1.4,1.7,2.1
		c0.8,0.8,1.7,1.5,2.8,2c0.8,0.4,1.6,0.6,2.4,0.8c0.8,0.1,1.6,0.2,2.4,0.2c0.3,0,0.7,0,1-0.1c1.1-0.1,2.1-0.4,3.1-0.7
		c0.1,0,0.1-0.1,0.2,0c0,0.1,0,0.1,0,0.2c-0.2,0.5-0.4,1-0.6,1.5c-0.3,0.9-0.5,1.7-0.7,2.6c-0.1,0.4-0.1,0.8-0.2,1.1
		c0,0.3,0,0.5-0.1,0.8c-0.1,0.6,0,1.2,0,1.8c0,0.4,0,0.8,0.1,1.2c0,0.3,0.1,0.5,0.1,0.8c0.1,0.8,0.3,1.5,0.5,2.3
		c0.1,0.5,0.3,0.9,0.5,1.4c0,0.1,0,0.1,0.1,0.2c0,0,0,0.1,0,0c0,0-0.1,0-0.1,0c-0.3-0.1-0.7-0.2-1.1-0.3c-0.3,0-0.6-0.1-0.9,0
		c-0.5,0-1,0.1-1.5,0.3c-0.5,0.2-0.9,0.4-1.4,0.6c-0.5,0.3-1,0.6-1.4,1c-0.1,0.1-0.3,0.3-0.4,0.4C52.9,60.2,52,61,51,61.7
		c-1.2,0.9-2.5,1.7-3.9,2.4c-2,1.1-4.1,1.9-6.2,2.7c-1.3,0.5-2.7,0.8-4.1,1.2c-0.7,0.2-1.3,0.3-2,0.4C34.6,68.3,34.4,68.4,34.1,68.4
		L34.1,68.4z"/>
	<path class="st0" d="M0.6,58.9c-0.1,0-0.1-0.1-0.1-0.2l0,0C0.4,58.7,0.5,58.7,0.6,58.9C0.5,58.8,0.6,58.8,0.6,58.9
		C0.6,58.9,0.6,58.9,0.6,58.9z"/>
	<path class="st0" d="M61.2,59.1C61.2,59.1,61.2,59,61.2,59.1c0-0.1,0.1-0.1,0.1-0.2c0,0,0,0,0-0.1l0,0c0,0,0,0.1,0,0.1
		C61.3,59,61.2,59,61.2,59.1L61.2,59.1z"/>
	<path class="st0" d="M34.1,68.4c-0.1,0-0.1,0-0.2,0C34,68.4,34,68.4,34.1,68.4C34.1,68.4,34.1,68.4,34.1,68.4z"/>
	<path class="st0" d="M0.4,58.6C0.4,58.7,0.4,58.7,0.4,58.6C0.4,58.7,0.4,58.7,0.4,58.6C0.4,58.6,0.4,58.6,0.4,58.6z"/>
	<path class="st0" d="M61.5,58.8C61.5,58.8,61.5,58.8,61.5,58.8C61.4,58.8,61.4,58.8,61.5,58.8C61.4,58.8,61.5,58.8,61.5,58.8
		L61.5,58.8z"/>
	<path class="st0" d="M61.5,58.8C61.4,58.8,61.4,58.8,61.5,58.8L61.5,58.8C61.4,58.8,61.4,58.8,61.5,58.8L61.5,58.8z"/>
	<path class="st0" d="M61.4,58.8C61.3,58.8,61.3,58.8,61.4,58.8L61.4,58.8C61.3,58.9,61.4,58.8,61.4,58.8
		C61.4,58.8,61.4,58.8,61.4,58.8z"/>
	<path class="st0" d="M0.6,58.9C0.6,58.9,0.6,58.9,0.6,58.9C0.6,58.9,0.6,58.9,0.6,58.9C0.6,58.9,0.6,58.9,0.6,58.9L0.6,58.9z"/>
	<path class="st0" d="M61.1,59.1C61.1,59.1,61.1,59.1,61.1,59.1C61.2,59.1,61.2,59.1,61.1,59.1C61.2,59.1,61.2,59.1,61.1,59.1
		L61.1,59.1z"/>
</g>
</svg>
