<?xml version="1.0" encoding="utf-8"?>
<!-- Generator: Adobe Illustrator 20.1.0, SVG Export Plug-In . SVG Version: 6.00 Build 0)  -->
<svg version="1.1" id="Capa_1" xmlns="http://www.w3.org/2000/svg" xmlns:xlink="http://www.w3.org/1999/xlink" x="0px" y="0px"
	 viewBox="0 0 512 471" style="enable-background:new 0 0 512 471;" xml:space="preserve">
<style type="text/css">
	.st0{fill:#FFFFFF;}
</style>
<g>
	<g>
		<path class="st0" d="M104.1,208.1c8.7,0,17-1.2,25.1-3.2v30.3c-31.8,5.7-56.9,30.8-62.5,62.7c-0.4,0-0.8-0.1-1.3-0.1H28.9
			c-15.1,0-27.3,12.2-27.3,27.3v54.7c0,15.1,12.2,27.3,27.3,27.3h36.5c0.4,0,0.8-0.1,1.3-0.1c6.4,36.3,38.1,63.9,76.2,63.9h200.5
			c42.7,0,77.5-34.8,77.5-77.5v-5l67.8,67.8c2.6,2.6,6.1,4,9.7,4c1.8,0,3.5-0.3,5.2-1c5.1-2.1,8.4-7.1,8.4-12.6V264.4
			c0-5.5-3.3-10.5-8.4-12.6c-5.1-2.1-11-1-14.9,3l-67.8,67.8v-11c0-38-27.6-69.7-63.8-76.2v-31.5c9.4,2.8,19.3,4.4,29.6,4.4
			c57.4,0,104.1-46.7,104.1-104.1S444,0,386.7,0c-57.4,0-104.1,46.7-104.1,104.1c0,29.6,12.5,56.2,32.3,75.2H175.8
			c19.9-19,32.3-45.6,32.3-75.2C208.1,46.7,161.5,0,104.1,0C46.7,0,0,46.7,0,104.1S46.7,208.1,104.1,208.1z M484.7,297.4v116.3
			l-58.1-58.1L484.7,297.4z M309.9,104.1c0-42.3,34.4-76.7,76.7-76.7c42.3,0,76.7,34.4,76.7,76.7c0,42.3-34.4,76.7-76.7,76.7
			C344.3,180.8,309.9,146.4,309.9,104.1z M104.1,27.3c42.3,0,76.7,34.4,76.7,76.7c0,42.3-34.4,76.7-76.7,76.7
			c-42.3,0-76.7-34.4-76.7-76.7C27.3,61.8,61.8,27.3,104.1,27.3z M156.5,206.6h173.2V234H156.5V206.6L156.5,206.6z M28.9,325.1h36.5
			v54.7H28.9V325.1z M393.5,311.5v44.1v38c0,27.6-22.5,50.1-50.1,50.1H142.8c-27.6,0-50.1-22.5-50.1-50.1v-13.7v-54.7v-13.7
			c0-27.6,22.5-50.1,50.1-50.1h200.5C371,261.3,393.5,283.8,393.5,311.5z"/>
		<circle class="st0" cx="104.1" cy="104.1" r="20.5"/>
		<path class="st0" d="M386.7,83.6c11.3,0,20.5,9.2,20.5,20.5s-9.2,20.5-20.5,20.5c-11.3,0-20.5-9.2-20.5-20.5
			S375.3,83.6,386.7,83.6z"/>
	</g>
</g>
</svg>
