<?xml version="1.0" encoding="utf-8"?>
<!-- Generator: Adobe Illustrator 20.1.0, SVG Export Plug-In . SVG Version: 6.00 Build 0)  -->
<svg version="1.1" id="Layer_1" xmlns="http://www.w3.org/2000/svg" xmlns:xlink="http://www.w3.org/1999/xlink" x="0px" y="0px"
	 viewBox="0 0 392.8 391.9" style="enable-background:new 0 0 392.8 391.9;" xml:space="preserve">
<style type="text/css">
	.st0{fill:#FFFFFF;stroke:#FFFFFF;stroke-width:0.9861;stroke-miterlimit:10;}
</style>
<g>
	<g>
		<path class="st0" d="M385.1,124.9c-6.5-6.5-16.4-6.5-23,0L303.1,184c-25.5,26.3-68.1,26.3-94.4,0c-26.3-25.5-26.3-68.1,0-94.4
			l59.1-59.1c6.5-6.5,6.5-16.4,0-23c-6.5-6.5-16.4-6.5-23,0l-59.1,59.1c-24.8,24.9-33.7,60-26.5,92.1c-7.4-1.7-54.2-12.3-92.5,26
			L7.6,244c-6.5,6.5-6.5,16.4,0,23c6.5,6.5,16.4,6.5,23,0l59.1-59.1c36.9-34,80.8-16.3,95.2,0c24.2,27.5,26.3,68.1,0,94.4
			l-59.1,59.1c-6.5,6.5-6.7,16.6,0,23c9.5,9.2,19.7,3.3,21.3,0l59.1-59.1c24.8-24.9,33.7-60,26.5-92.1c7.5,1.7,55,12.2,93.3-26.1
			l59.1-59.1C391.7,141.3,391.7,131.5,385.1,124.9L385.1,124.9z M385.1,124.9"/>
	</g>
	<path class="st0" d="M172.5,281.7c6.5-6.5,6.5-16.4,0-23l-39.4-39.4c-6.5-6.5-16.4-6.5-23,0c-6.5,6.5-6.5,16.4,0,23l39.4,39.4
		C159.3,290.5,169.3,285.8,172.5,281.7L172.5,281.7z M172.5,281.7"/>
	<path class="st0" d="M129.8,303.1l-39.4-39.4c-6.5-6.5-16.4-6.5-23,0c-6.5,6.5-6.5,16.4,0,23l38.6,38.6c3.3,3.3,11.1,8.6,23.8,0.8
		C136.5,319.5,136.5,309.6,129.8,303.1L129.8,303.1z M129.8,303.1"/>
	<path class="st0" d="M263.6,89.7L303,129c10.2,9.3,19.7,3.3,23,0c6.5-6.5,6.5-16.4,0-23l-39.4-39.4c-6.5-6.5-16.4-6.5-23,0
		C257.1,73.3,257.1,83.1,263.6,89.7L263.6,89.7z M263.6,89.7"/>
	<path class="st0" d="M220.2,109.4c-6.5,6.5-6.5,16.4,0,23l39.4,39.4c9.8,9.1,19.7,3.3,23,0c6.5-6.5,6.5-16.4,0-23l-39.4-39.4
		C236.6,102.8,226.7,102.8,220.2,109.4L220.2,109.4z M220.2,109.4"/>
</g>
</svg>
