<?xml version="1.0" encoding="utf-8"?>
<!-- Generator: Adobe Illustrator 20.0.0, SVG Export Plug-In . SVG Version: 6.00 Build 0)  -->
<svg version="1.1" id="Layer_1" xmlns="http://www.w3.org/2000/svg" xmlns:xlink="http://www.w3.org/1999/xlink" x="0px" y="0px"
	 viewBox="0 0 398.7 399.3" style="enable-background:new 0 0 398.7 399.3;" xml:space="preserve">
<style type="text/css">
	.st0{fill:#FFFFFF;stroke:#FFFFFF;stroke-miterlimit:10;}
</style>
<g>
	<g>
		<path class="st0" d="M390.8,127.3c-6.6-6.6-16.6-6.6-23.3,0l-59.9,59.9c-25.8,26.6-69,26.6-95.7,0c-26.6-25.8-26.6-69,0-95.7
			l59.9-59.9c6.6-6.6,6.6-16.6,0-23.3c-6.6-6.6-16.6-6.6-23.3,0l-59.9,59.9c-25.2,25.2-34.2,60.8-26.9,93.4
			c-7.5-1.8-55-12.5-93.8,26.4L8,248c-6.6,6.6-6.6,16.6,0,23.3c6.6,6.6,16.6,6.6,23.3,0l59.9-59.9c37.4-34.5,81.9-16.6,96.6,0
			c24.6,27.8,26.6,69,0,95.7L127.8,367c-6.6,6.6-6.8,16.8,0,23.3c9.7,9.3,20,3.4,21.6,0l59.9-59.9c25.2-25.2,34.2-60.8,26.9-93.4
			c7.6,1.8,55.8,12.4,94.6-26.5l59.9-59.9C397.4,144,397.4,134,390.8,127.3L390.8,127.3z M390.8,127.3"/>
	</g>
	<path class="st0" d="M175.2,286.3c6.6-6.6,6.6-16.6,0-23.3l-39.9-39.9c-6.6-6.6-16.6-6.6-23.3,0c-6.6,6.6-6.6,16.6,0,23.3
		l39.9,39.9C161.7,295.2,171.9,290.4,175.2,286.3L175.2,286.3z M175.2,286.3"/>
	<path class="st0" d="M131.9,308L92,268c-6.6-6.6-16.6-6.6-23.3,0c-6.6,6.6-6.6,16.6,0,23.3l39.1,39.1c3.4,3.4,11.3,8.7,24.2,0.8
		C138.6,324.6,138.6,314.6,131.9,308L131.9,308z M131.9,308"/>
	<path class="st0" d="M267.6,91.6l39.9,39.9c10.3,9.4,20,3.4,23.3,0c6.6-6.6,6.6-16.6,0-23.3l-39.9-39.9c-6.6-6.6-16.6-6.6-23.3,0
		C260.9,74.9,260.9,84.9,267.6,91.6L267.6,91.6z M267.6,91.6"/>
	<path class="st0" d="M223.5,111.6c-6.6,6.6-6.6,16.6,0,23.3l39.9,39.9c9.9,9.2,20,3.4,23.3,0c6.6-6.6,6.6-16.6,0-23.3l-39.9-39.9
		C240.1,104.8,230.1,104.8,223.5,111.6L223.5,111.6z M223.5,111.6"/>
</g>
</svg>
