<?xml version="1.0" encoding="utf-8"?>
<!-- Generator: Adobe Illustrator 20.1.0, SVG Export Plug-In . SVG Version: 6.00 Build 0)  -->
<svg version="1.1" id="Isolation_Mode" xmlns="http://www.w3.org/2000/svg" xmlns:xlink="http://www.w3.org/1999/xlink" x="0px"
	 y="0px" viewBox="0 0 363.4 485.4" style="enable-background:new 0 0 363.4 485.4;" xml:space="preserve">
<style type="text/css">
	.st0{fill:#FFFFFF;}
</style>
<g>
	<path class="st0" d="M57.4,301.1h57.4v-57.4H57.4V301.1z M76.5,262.9h19.1V282H76.5V262.9z"/>
	<path class="st0" d="M57.4,396.8h57.4v-57.4H57.4V396.8z M76.5,358.5h19.1v19.1H76.5V358.5z"/>
	<rect x="153" y="167.2" class="st0" width="153" height="19.1"/>
	<path class="st0" d="M248.6,0h-9.6H38.2C17.2,0,0,17.2,0,38.2v408.9c0,21,17.2,38.2,38.2,38.2h286.9c21,0,38.2-17.2,38.2-38.2
		V143.4v-9.6L248.6,0z M248.6,28.7l89.9,105.2h-70.8c-9.6,0-19.1-9.6-19.1-19.1V28.7z M344.2,447.1c0,9.6-7.6,19.1-19.1,19.1H38.2
		c-9.6,0-19.1-7.6-19.1-19.1V38.2c0-9.6,7.7-19.1,19.1-19.1h191.2v95.6c0,21,17.2,38.2,38.2,38.2h76.5V447.1z"/>
	<rect x="153" y="262.9" class="st0" width="153" height="19.1"/>
	<rect x="153" y="358.5" class="st0" width="153" height="19.1"/>
	<path class="st0" d="M57.4,205.5h57.4v-57.4H57.4V205.5z M76.5,167.2h19.1v19.1H76.5V167.2z"/>
</g>
</svg>
