<?xml version="1.0" encoding="utf-8"?>
<!-- Generator: Adobe Illustrator 20.0.0, SVG Export Plug-In . SVG Version: 6.00 Build 0)  -->
<svg version="1.1" id="Layer_1" xmlns="http://www.w3.org/2000/svg" xmlns:xlink="http://www.w3.org/1999/xlink" x="0px" y="0px"
	 viewBox="0 0 110 110" style="enable-background:new 0 0 110 110;" xml:space="preserve">
<style type="text/css">
	.st0{fill:url(#SVGID_1_);}
	.st1{fill:#899399;}
</style>
<g>
	<radialGradient id="SVGID_1_" cx="55" cy="55" r="55" gradientUnits="userSpaceOnUse">
		<stop  offset="0" style="stop-color:#B5BCBE"/>
		<stop  offset="0.4524" style="stop-color:#C9D0D1"/>
		<stop  offset="0.8333" style="stop-color:#D4DBDC"/>
		<stop  offset="0.9343" style="stop-color:#D2D8D9"/>
		<stop  offset="0.9949" style="stop-color:#CBD0D1"/>
		<stop  offset="1" style="stop-color:#CACFD0"/>
	</radialGradient>
	<path class="st0" d="M55,110C24.6,110,0,85.4,0,55S24.6,0,55,0s55,24.6,55,55S85.4,110,55,110z"/>
	<path class="st1" d="M92.6,95.2c-0.2-0.7-0.4-1.1-0.6-1.3c-2.2-1-14.8-6.1-20-8.2l-0.8,1.2l-0.3-0.6c-0.5-0.2-1.1-0.5-1.3-0.6
		c-0.6-0.5-1.2-3.8-0.9-4.5c4.6-1.1,15.7-4.1,18-6c-0.8-2.5-2.4-13.6-3-17.5c-0.9-6.2-3.2-19.3-3.7-22.9c-0.5-3.3-1.4-9.9-6.5-16.3
		c-2.7-3.4-6.5-6.6-16.5-6.6c-4.6,0-8.7,2.1-10.1,4c0,0,2.3,1.7,2.6,2.4l-0.9-0.1c-0.8-1.1-3.1-2-3.1-2c-4.2-0.8-8.5,2.7-9.6,3.9
		c-5.4,6.1-4.6,11.3-5.1,14.6c-0.5,3.6-2.8,16.7-3.7,22.9c-0.6,4-4.9,20-5.7,22.6c2.3,1.9,15.3,1.3,19.9,0.1
		c0.3,0.7-0.3,4.9-0.9,5.3c-0.2,0.2-0.8,0.5-1.3,0.6l-0.3,0.6L38,85.7c-5.2,2.1-17.8,7.1-20,8.2c-0.2,0.2-0.4,0.6-0.6,1.3
		c9.8,9.2,23,14.8,37.6,14.8S82.7,104.4,92.6,95.2z"/>
</g>
</svg>
