<svg id="Layer_1" data-name="Layer 1" xmlns="http://www.w3.org/2000/svg" viewBox="0 0 527.42 150.92"><defs><style>.cls-1{fill:#0b7dbc;}.cls-2{fill:#85c556;}</style></defs><title>FMP-logo-reg</title><path class="cls-1" d="M28.85,63H18.2v38.44H9.1V63H0V55.58H9.1V46a28.93,28.93,0,0,1,.92-7.5,15.48,15.48,0,0,1,3-6,14.42,14.42,0,0,1,5.33-4,19.25,19.25,0,0,1,7.89-1.45,21.37,21.37,0,0,1,5.71.68l-1.06,7.84q-1.07-.29-2.13-.48A13.65,13.65,0,0,0,26.34,35a8.41,8.41,0,0,0-4.21.92,6.49,6.49,0,0,0-2.47,2.47,10.14,10.14,0,0,0-1.16,3.53A28.38,28.38,0,0,0,18.2,46v9.59H28.85ZM48.41,39a5.43,5.43,0,0,1-1.78,4.16,6.06,6.06,0,0,1-4.27,1.65,5.81,5.81,0,0,1-4.23-1.69A5.54,5.54,0,0,1,36.41,39a5.66,5.66,0,0,1,1.73-4.21,5.81,5.81,0,0,1,4.23-1.69,6,6,0,0,1,4.27,1.69A5.59,5.59,0,0,1,48.41,39ZM47,101.48h-9.1V55.58H47Z"/><path class="cls-1" d="M63.8,55.58q.19,1.74.29,3.92t.1,3.63h.29a13.36,13.36,0,0,1,2.37-3.44,17.19,17.19,0,0,1,3.44-2.81A17,17,0,0,1,74.55,55a17.24,17.24,0,0,1,4.84-.68A17.87,17.87,0,0,1,87,55.82a15.51,15.51,0,0,1,5.33,4,16.28,16.28,0,0,1,3.15,5.91,25.17,25.17,0,0,1,1,7.26v28.47h-9.1V76A31.22,31.22,0,0,0,87,70.68a12.83,12.83,0,0,0-1.6-4.45,8.66,8.66,0,0,0-3.2-3.1A10.45,10.45,0,0,0,77,62a11,11,0,0,0-8.86,4.12q-3.44,4.12-3.44,11v24.4h-9.1v-36q0-1.84-.1-4.74t-.29-5.13Z"/><path class="cls-1" d="M141.49,94.21a16.93,16.93,0,0,1-7.12,6.34,21.41,21.41,0,0,1-9.44,2.18,23.41,23.41,0,0,1-9.59-1.89,21.43,21.43,0,0,1-7.26-5.18,23.35,23.35,0,0,1-4.65-7.75,27.13,27.13,0,0,1-1.65-9.49A26.75,26.75,0,0,1,103.44,69a23.07,23.07,0,0,1,4.7-7.7,21.41,21.41,0,0,1,7.31-5.13,23.45,23.45,0,0,1,9.39-1.84,19.44,19.44,0,0,1,9.78,2.37,20.25,20.25,0,0,1,6.58,5.76h.19V28.27h9.1v73.2h-8.81V94.21ZM111.28,78.48a19.93,19.93,0,0,0,1,6.18,15.72,15.72,0,0,0,2.9,5.31,15.25,15.25,0,0,0,17.67,3.77,15.26,15.26,0,0,0,4.89-3.62,16.34,16.34,0,0,0,3.15-5.26,18.24,18.24,0,0,0,0-12.55A16.93,16.93,0,0,0,137.72,67a14.94,14.94,0,0,0-4.89-3.67A14.63,14.63,0,0,0,126.48,62a15,15,0,0,0-6.58,1.35A14,14,0,0,0,115.16,67a15.72,15.72,0,0,0-2.9,5.31A19.93,19.93,0,0,0,111.28,78.48Z"/><path class="cls-1" d="M186.05,56.89a15.88,15.88,0,0,1,9.05-2.57,16.59,16.59,0,0,1,8.38,2.13,14.28,14.28,0,0,1,5.86,7.07,16.38,16.38,0,0,1,6.49-6.83,18.07,18.07,0,0,1,9.1-2.37,17.88,17.88,0,0,1,7.65,1.5,15.52,15.52,0,0,1,5.33,4,16.29,16.29,0,0,1,3.15,5.91,25.17,25.17,0,0,1,1,7.26v28.47H233V76a28.23,28.23,0,0,0-.48-5.33,13.61,13.61,0,0,0-1.65-4.45,8.9,8.9,0,0,0-3.1-3.1A9.48,9.48,0,0,0,222.8,62a10.33,10.33,0,0,0-5.33,1.31,11.06,11.06,0,0,0-3.63,3.39,14.29,14.29,0,0,0-2,4.7,22.62,22.62,0,0,0-.63,5.33v24.79h-9.1V74.17a23.34,23.34,0,0,0-.48-4.94,10.05,10.05,0,0,0-1.65-3.82,8.18,8.18,0,0,0-3-2.52,10.13,10.13,0,0,0-4.55-.92A10.36,10.36,0,0,0,184,66.09q-3.34,4.12-3.34,11v24.4h-9.1v-36q0-1.84-.1-4.74t-.29-5.13h8.62q.19,1.74.29,3.92t.1,3.63h.29A15.52,15.52,0,0,1,186.05,56.89Z"/><path class="cls-1" d="M269.23,91.6h.19l12.68-36h9.68l-22.27,56.74A36.94,36.94,0,0,1,267,117.5a15.8,15.8,0,0,1-3.2,3.87,13.18,13.18,0,0,1-4.31,2.47,17.63,17.63,0,0,1-5.86.87q-1.45,0-3-.15a20.92,20.92,0,0,1-3-.53l.87-8a14.36,14.36,0,0,0,4.55.77,6.72,6.72,0,0,0,5.33-2,19.43,19.43,0,0,0,3.2-5.66l2.9-7.65-19.66-45.9H255Z"/><path class="cls-1" d="M315.95,124.72h-9.1V55.58h8.91v7.17H316a17,17,0,0,1,6.52-6.05,20.36,20.36,0,0,1,10-2.37,23,23,0,0,1,9.32,1.84,21.51,21.51,0,0,1,7.24,5.13,23.11,23.11,0,0,1,4.68,7.7,26.8,26.8,0,0,1,1.64,9.44,27.18,27.18,0,0,1-1.64,9.49,23.39,23.39,0,0,1-4.64,7.75,21.42,21.42,0,0,1-7.24,5.18,23.31,23.31,0,0,1-9.56,1.89,20.8,20.8,0,0,1-9.27-2.13,16.77,16.77,0,0,1-6.86-6h-.29Zm30.21-46.28a20.1,20.1,0,0,0-1-6.2,15.83,15.83,0,0,0-2.91-5.33,13.94,13.94,0,0,0-4.79-3.68,15.32,15.32,0,0,0-6.63-1.36,14.61,14.61,0,0,0-6.34,1.36,14.92,14.92,0,0,0-4.89,3.68,16.94,16.94,0,0,0-3.15,5.33,18.35,18.35,0,0,0,0,12.59,16.33,16.33,0,0,0,3.15,5.28,15.21,15.21,0,0,0,4.89,3.63,14.59,14.59,0,0,0,6.34,1.36,14.85,14.85,0,0,0,6.63-1.4A14.45,14.45,0,0,0,342.28,90a15.83,15.83,0,0,0,2.91-5.33A20.09,20.09,0,0,0,346.16,78.43Z"/><path class="cls-1" d="M391.7,71.75q0-5.13-3.1-7.6a12.83,12.83,0,0,0-8.23-2.47,18.08,18.08,0,0,0-7.31,1.5A18.51,18.51,0,0,0,367.3,67l-4.84-5.81a24.44,24.44,0,0,1,8.28-5,29.61,29.61,0,0,1,10.51-1.84,23.75,23.75,0,0,1,8.57,1.4,16.22,16.22,0,0,1,6,3.82,15.68,15.68,0,0,1,3.49,5.71,21.1,21.1,0,0,1,1.16,7.07v20q0,2.32.14,4.89a25,25,0,0,0,.53,4.21h-8.23a28.59,28.59,0,0,1-.78-6.58h-.29a17.63,17.63,0,0,1-6.34,5.71,19,19,0,0,1-9.05,2,23.71,23.71,0,0,1-5.67-.73,16.41,16.41,0,0,1-5.37-2.37,13.37,13.37,0,0,1-4-4.36,13,13,0,0,1-1.6-6.68,11.74,11.74,0,0,1,2.81-8.28,17.78,17.78,0,0,1,7.36-4.65,41.57,41.57,0,0,1,10.26-2.08Q385.89,73,391.7,73Zm-2.23,7.84q-3.39,0-7,.29A32.41,32.41,0,0,0,375.87,81,12.44,12.44,0,0,0,371,83.66,5.94,5.94,0,0,0,369,88.31a6.42,6.42,0,0,0,.82,3.39A6.81,6.81,0,0,0,372,93.92a8.75,8.75,0,0,0,3,1.21,16.67,16.67,0,0,0,3.39.34q6.39,0,9.83-3.82A13.87,13.87,0,0,0,391.7,82V79.59Z"/><path class="cls-1" d="M436.5,67.2a11.92,11.92,0,0,0-4.36-4.12,12.51,12.51,0,0,0-6.29-1.6,14.47,14.47,0,0,0-3.1.34A9.11,9.11,0,0,0,420,62.89a5.88,5.88,0,0,0-1.94,1.84,5,5,0,0,0-.73,2.76,4.59,4.59,0,0,0,2.61,4.31,32.08,32.08,0,0,0,7.84,2.57,48.91,48.91,0,0,1,6.1,1.84,19.16,19.16,0,0,1,4.89,2.66A11.49,11.49,0,0,1,442,82.69a11.16,11.16,0,0,1,1.16,5.23,14.07,14.07,0,0,1-1.55,6.88,13.46,13.46,0,0,1-4.12,4.6,16.87,16.87,0,0,1-5.86,2.57,29.54,29.54,0,0,1-6.78.77,26.82,26.82,0,0,1-10.21-2,20,20,0,0,1-8.28-6.2L412.88,89A14.82,14.82,0,0,0,418,93.54a14.17,14.17,0,0,0,7.12,1.84,16,16,0,0,0,3.34-.34,9.5,9.5,0,0,0,2.91-1.11,5.61,5.61,0,0,0,2.86-5.23,5,5,0,0,0-3-4.74,41.08,41.08,0,0,0-9-2.9q-2.32-.58-4.7-1.4a15.66,15.66,0,0,1-4.31-2.28A11.38,11.38,0,0,1,410,73.74a10.93,10.93,0,0,1-1.21-5.37,12.7,12.7,0,0,1,1.5-6.34,13.06,13.06,0,0,1,3.92-4.36,17.26,17.26,0,0,1,5.52-2.52,24.82,24.82,0,0,1,6.39-.82,24.36,24.36,0,0,1,9.54,1.94,15.8,15.8,0,0,1,7.12,5.62Z"/><path class="cls-1" d="M477.1,63H464.9V86.88q0,4.15,1.55,5.94t4.94,1.79a15,15,0,0,0,2.71-.27,11,11,0,0,0,2.61-.8L477,101a22.16,22.16,0,0,1-3.63.92,24.47,24.47,0,0,1-4.12.34q-6.49,0-9.92-3.58T455.9,87.92V63h-8.81V55.58h8.81V42.41h9V55.58h12.2Z"/><path class="cls-2" d="M437,150.92a13.67,13.67,0,1,1,11.51-6.28A13.62,13.62,0,0,1,437,150.92Z"/><path class="cls-2" d="M478.49,145.22a11.69,11.69,0,1,1,9.84-5.37A11.67,11.67,0,0,1,478.49,145.22Z"/><path class="cls-2" d="M505.23,123a10.84,10.84,0,1,1,9.12-5A10.8,10.8,0,0,1,505.23,123Z"/><path class="cls-2" d="M517.71,90.59a9.7,9.7,0,1,1,8.17-4.46A9.68,9.68,0,0,1,517.71,90.59Z"/><path class="cls-2" d="M514.9,58.53a9.42,9.42,0,1,1,7.93-4.33A9.4,9.4,0,0,1,514.9,58.53Z"/><path class="cls-2" d="M495.63,31.68a8.85,8.85,0,1,1,7.45-4.07A8.83,8.83,0,0,1,495.63,31.68Z"/><path class="cls-2" d="M462.46,15.44a7.73,7.73,0,1,1,6.5-3.55A7.68,7.68,0,0,1,462.46,15.44Z"/><path class="cls-2" d="M427.51,20.25a7.38,7.38,0,1,1,6.21-3.39A7.36,7.36,0,0,1,427.51,20.25Z"/><path class="cls-2" d="M402.3,37.27a6.3,6.3,0,1,1,5.31-2.9A6.28,6.28,0,0,1,402.3,37.27Z"/></svg>