<?xml version="1.0" encoding="utf-8"?>
<!-- Generator: Adobe Illustrator 20.1.0, SVG Export Plug-In . SVG Version: 6.00 Build 0)  -->
<svg version="1.1" id="Layer_1" xmlns="http://www.w3.org/2000/svg" xmlns:xlink="http://www.w3.org/1999/xlink" x="0px" y="0px"
	 viewBox="0 0 390.8 390.8" style="enable-background:new 0 0 390.8 390.8;" xml:space="preserve">
<style type="text/css">
	.st0{fill:#FFFFFF;}
</style>
<g>
	<g>
		<path class="st0" d="M376.3,92.1h-33.8V38.8c0-4.4-3.6-8-8-8H168.7c-4,0-7.3-3.3-7.3-7.3v-0.3C161.5,10.4,151,0,138.2,0H14.5
			c-4.4,0-8,3.6-8,8v313.5c0,4.4,3.6,8,8,8h33.8v53.2c0,4.4,3.6,8,8,8h320c4.4,0,8-3.6,8-8V100.1C384.3,95.7,380.7,92.1,376.3,92.1z
			 M48.3,201.9v111.6H22.5V148.7h25.8V201.9z M48.3,69.2v63.4H22.5V16h115.7c4,0,7.3,3.3,7.3,7.3v0.3c0,12.8,10.4,23.3,23.3,23.3
			h157.7v45.2H210.6c-4,0-7.3-3.3-7.3-7.3v-0.3c0-12.8-10.4-23.3-23.3-23.3H56.3C51.9,61.2,48.3,64.8,48.3,69.2z M368.3,307.2H204.8
			v-36h163.5V307.2z M368.3,255.2H196.8c-4.4,0-8,3.6-8,8v52c0,4.4,3.6,8,8,8h171.5v51.5h-304v0V209.9H180
			c12.8,0,23.3-10.4,23.3-23.3V180c0-4,3.3-7.3,7.3-7.3h157.7V255.2z M101.6,193.9v-54.7h231.2v17.5H210.6
			c-12.8,0-23.3,10.4-23.3,23.3v6.6c0,4-3.3,7.3-7.3,7.3H101.6z M368.3,156.8h-19.5v-25.5c0-4.4-3.6-8-8-8H93.6c-4.4,0-8,3.6-8,8
			v62.7H64.3V77.2H180c4,0,7.3,3.3,7.3,7.3v0.3c0,12.8,10.4,23.3,23.3,23.3h157.7V156.8z"/>
	</g>
</g>
</svg>
