<?xml version="1.0" encoding="utf-8"?>
<!-- Generator: Adobe Illustrator 20.0.0, SVG Export Plug-In . SVG Version: 6.00 Build 0)  -->
<svg version="1.1" id="Layer_1" xmlns="http://www.w3.org/2000/svg" xmlns:xlink="http://www.w3.org/1999/xlink" x="0px" y="0px"
	 viewBox="0 0 283.1 73.5" style="enable-background:new 0 0 283.1 73.5;" xml:space="preserve">
<style type="text/css">
	.st0{fill:#FFFFFF;}
</style>
<g>
	<g>
		<path class="st0" d="M199,38.3c-0.1-1.4-0.1-25.3,0-26.7c0.1-1.5,0.6-2.8,3-3.3h-10.7c2.4,0.6,3,1.8,3,3.3
			c0.1,1.4,0.1,25.3,0,26.7c-0.1,1.5-0.7,2.8-3,3.3H202C199.6,41,199.1,39.8,199,38.3z"/>
		<path class="st0" d="M234.2,8.2c0,0,3.6,0,4,5.2v18.9c-7.9-7.6-25.7-24.7-25.7-24.7v28.7c-0.4,5.2-4.1,5.2-4,5.2h12.3
			c0,0-4.6-0.3-4.6-5.8l0-0.4V17.9c1.8,1.9,25.2,23.9,25.7,24.3l0-27.8l0-0.4c0-5.5,4.6-5.7,4.6-5.8H234.2z"/>
		<path class="st0" d="M45.6,46.1L27.3,0.3L7.1,50.4c-1.4,3.4-7.2,4-7.1,4.1h11l14.6-38.9l14.6,38.9h14.8
			C55.1,54.4,49.4,54.2,45.6,46.1z"/>
		<path class="st0" d="M128.9,36L116.7,5.4l-13.5,33.5c-0.9,2.3-4.8,2.7-4.8,2.7h7.4l9.8-26l9.8,26h9.9
			C135.3,41.6,131.5,41.4,128.9,36z"/>
		<path class="st0" d="M250.8,15.3c-0.2-1.4-1.1-7.6,4.3-11.7C253,2.7,254.6,0,254.6,0S248.6,4.6,250.8,15.3z"/>
		<rect x="12.2" y="40.5" class="st0" width="25.8" height="2.4"/>
		<rect x="107.3" y="31.3" class="st0" width="17.2" height="1.4"/>
		<path class="st0" d="M271.9,24l-1.9-1.5c-5.8-4.6-7.4-7.2-7.4-10.6c0-4.4,3.1-7.7,8.3-7.6c8.6,0.3,10.4,9.7,10.5,9.6V2.3
			c-0.1,0-0.2-0.1-0.4-0.1c-1.8-0.5-4.7-1.2-9.2-1.2c-9.6,0-16,5.8-16,13.9c0,6,3.4,10.2,11.1,16.6l0.1,0.1l1.9,1.5
			c5.8,4.6,7.4,7.2,7.4,10.6c0,4.4-3.1,7.6-8.3,7.6c-9.7,0-12.9-9.9-13-9.8v11.6c0.1,0,0.2,0.1,0.4,0.1c1.8,0.5,7.2,1.5,11.7,1.5
			c9.6,0,16-5.8,16-13.9l0,0C283.1,34.7,279.6,30.3,271.9,24L271.9,24z"/>
		<path class="st0" d="M175.5,22.3l-1.3-1c-3.7-3-4.8-4.7-4.8-6.8c0-2.9,2-5,5.3-4.9c5.6,0.2,6.7,6.3,6.8,6.2V8.2
			c-0.1,0-0.2-0.1-0.2-0.1c-1.2-0.3-3-0.8-6-0.8c-6.2,0-10.4,3.8-10.4,9c0,3.9,2.2,6.6,7.2,10.7l0.1,0.1l1.3,1
			c3.7,3,4.8,4.7,4.8,6.8c0,2.9-2,4.9-5.3,4.9c-6.3,0-8.3-6.4-8.4-6.3V41c0.1,0,0.2,0.1,0.2,0.1c1.2,0.3,4.7,1,7.6,1
			c6.2,0,10.4-3.8,10.4-9l0,0C182.8,29.2,180.5,26.4,175.5,22.3L175.5,22.3z"/>
		<path class="st0" d="M150.4,22.3l-1.3-1c-3.7-3-4.8-4.7-4.8-6.8c0-2.9,2-5,5.3-4.9c5.6,0.2,6.7,6.3,6.8,6.2V8.2
			c-0.1,0-0.2-0.1-0.2-0.1c-1.2-0.3-3-0.8-6-0.8c-6.2,0-10.4,3.8-10.4,9c0,3.9,2.2,6.6,7.2,10.7l0.1,0.1l1.3,1
			c3.7,3,4.8,4.7,4.8,6.8c0,2.9-2,4.9-5.3,4.9c-6.3,0-8.3-6.4-8.4-6.3V41c0.1,0,0.1,0.1,0.2,0.1c1.2,0.3,4.7,1,7.6,1
			c6.2,0,10.4-3.8,10.4-9l0,0C157.6,29.2,155.3,26.4,150.4,22.3L150.4,22.3z"/>
		<path class="st0" d="M88.7,22.3l-1.3-1c-3.7-3-4.8-4.7-4.8-6.8c0-2.9,2-5,5.3-4.9c5.6,0.2,6.7,6.3,6.8,6.2V8.2
			c-0.1,0-0.1-0.1-0.2-0.1c-1.2-0.3-3-0.8-6-0.8c-6.2,0-10.4,3.8-10.4,9c0,3.9,2.2,6.6,7.2,10.7l0.1,0.1l1.3,1
			c3.7,3,4.8,4.7,4.8,6.8c0,2.9-2,4.9-5.3,4.9c-6.3,0-8.3-6.4-8.4-6.3V41c0.1,0,0.1,0.1,0.2,0.1c1.2,0.3,4.7,1,7.6,1
			c6.2,0,10.4-3.8,10.4-9l0,0C95.9,29.2,93.6,26.4,88.7,22.3L88.7,22.3z"/>
		<path class="st0" d="M63.5,22.3l-1.3-1c-3.7-3-4.8-4.7-4.8-6.8c0-2.9,2-5,5.3-4.9c5.6,0.2,6.7,6.3,6.8,6.2V8.2
			c-0.1,0-0.1-0.1-0.2-0.1c-1.2-0.3-3-0.8-6-0.8c-6.2,0-10.4,3.8-10.4,9c0,3.9,2.2,6.6,7.2,10.7l0.1,0.1l1.3,1
			c3.7,3,4.8,4.7,4.8,6.8c0,2.9-2,4.9-5.3,4.9c-6.3,0-8.3-6.4-8.4-6.3V41c0.1,0,0.1,0.1,0.2,0.1c1.2,0.3,4.7,1,7.6,1
			c6.2,0,10.4-3.8,10.4-9l0,0C70.7,29.2,68.4,26.4,63.5,22.3L63.5,22.3z"/>
	</g>
	<g>
		<g>
			<path class="st0" d="M65.6,70.3c-2.9-2.6-3.7-5.9-3.7-8.8c0-2,0.6-5.5,3.5-8.1c2.1-2,5-3.1,9.4-3.1c1.8,0,2.9,0.1,4.3,0.3
				c1.1,0.1,2.1,0.4,3,0.5c0.3,0,0.4,0.2,0.4,0.4c0,0.2-0.1,0.6-0.1,1.6c-0.1,1,0,2.6-0.1,3.2c0,0.4-0.1,0.7-0.4,0.7
				c-0.2,0-0.3-0.2-0.3-0.7c0-0.9-0.4-2-1.2-2.7c-1-1-3.3-1.8-6-1.8c-2.6,0-4.3,0.7-5.6,1.8c-2.2,2-2.7,4.8-2.7,7.7
				c0,7.1,5.4,10.6,9.3,10.6c2.6,0,4.2-0.3,5.4-1.7c0.5-0.6,0.9-1.4,1-2c0.1-0.5,0.1-0.6,0.4-0.6c0.2,0,0.3,0.2,0.3,0.4
				c0,0.4-0.4,2.9-0.7,3.9c-0.1,0.5-0.3,0.7-0.8,0.9c-1.2,0.5-3.4,0.7-5.3,0.7C71.7,73.5,68.3,72.6,65.6,70.3z"/>
			<path class="st0" d="M106.7,59.3c0-4.5,0-5.3-0.1-6.3c-0.1-1-0.3-1.5-1.3-1.7c-0.2-0.1-0.7-0.1-1.2-0.1c-0.3,0-0.5-0.1-0.5-0.3
				c0-0.2,0.2-0.3,0.7-0.3c1.6,0,3.4,0.1,4.1,0.1c1,0,3.3-0.1,4.2-0.1c1.9,0,3.9,0.2,5.5,1.3c0.8,0.6,2,2.1,2,4.1
				c0,2.2-0.9,4.2-3.9,6.6c2.6,3.3,4.7,6,6.4,7.8c1.7,1.7,2.9,1.9,3.3,2c0.3,0.1,0.6,0.1,0.8,0.1c0.2,0,0.4,0.1,0.4,0.2
				c0,0.2-0.2,0.3-0.6,0.3h-2.8c-1.7,0-2.4-0.1-3.2-0.6c-1.3-0.7-2.4-2.1-4.1-4.4c-1.2-1.6-2.6-3.6-2.9-4.1
				c-0.1-0.2-0.3-0.2-0.5-0.2l-2.6-0.1c-0.1,0-0.2,0.1-0.2,0.2v0.4c0,2.8,0,5.1,0.1,6.3c0.1,0.9,0.3,1.5,1.2,1.6
				c0.4,0.1,1.1,0.1,1.5,0.1c0.2,0,0.4,0.1,0.4,0.2c0,0.2-0.2,0.3-0.6,0.3c-1.7,0-3.9-0.1-4.4-0.1c-0.6,0-2.4,0.1-3.6,0.1
				c-0.4,0-0.6-0.1-0.6-0.3c0-0.1,0.1-0.2,0.5-0.2c0.4,0,0.8-0.1,1.1-0.1c0.6-0.1,0.7-0.8,0.9-1.6c0.1-1.2,0.1-3.6,0.1-6.3V59.3z
				 M110.2,61.6c0,0.3,0.1,0.4,0.3,0.5c0.6,0.2,1.5,0.3,2.3,0.3c1.2,0,1.6-0.1,2.1-0.5c0.9-0.7,1.8-2,1.8-4.4c0-4.2-2.8-5.4-4.5-5.4
				c-0.7,0-1.3,0-1.6,0.1c-0.2,0.1-0.3,0.2-0.3,0.4V61.6z"/>
			<path class="st0" d="M146.9,59.3c0-4.5,0-5.3-0.1-6.3c-0.1-1-0.3-1.5-1.3-1.7c-0.2-0.1-0.7-0.1-1.2-0.1c-0.3,0-0.5-0.1-0.5-0.3
				c0-0.2,0.2-0.3,0.7-0.3c0.8,0,1.7,0,2.4,0c0.8,0,1.5,0.1,1.9,0.1c1,0,6.9,0,7.4,0c0.6-0.1,1-0.1,1.3-0.2c0.1,0,0.3-0.1,0.5-0.1
				c0.2,0,0.2,0.1,0.2,0.3c0,0.2-0.1,0.6-0.2,1.9c0,0.3-0.1,1.6-0.1,2c0,0.1-0.1,0.3-0.3,0.3c-0.2,0-0.3-0.1-0.3-0.4
				c0-0.2,0-0.7-0.2-1.1c-0.2-0.5-0.5-0.9-2-1.1c-0.5-0.1-3.6-0.1-4.2-0.1c-0.1,0-0.2,0.1-0.2,0.3V60c0,0.2,0,0.3,0.2,0.3
				c0.7,0,4.1,0,4.7-0.1c0.7-0.1,1.2-0.1,1.4-0.4c0.2-0.2,0.3-0.4,0.5-0.4c0.1,0,0.2,0.1,0.2,0.2c0,0.2-0.1,0.7-0.2,2.2
				c0,0.6-0.1,1.8-0.1,2c0,0.2,0,0.6-0.3,0.6c-0.2,0-0.3-0.1-0.3-0.3c0-0.3,0-0.7-0.1-1.1c-0.1-0.6-0.6-1-1.7-1.2
				c-0.6-0.1-3.5-0.1-4.2-0.1c-0.1,0-0.2,0.1-0.2,0.3v2.3c0,1,0,3.7,0,4.6c0.1,2,0.5,2.5,3.6,2.5c0.8,0,2,0,2.8-0.4
				c0.8-0.4,1.1-1,1.3-2.2c0.1-0.3,0.1-0.4,0.3-0.4c0.2,0,0.2,0.2,0.2,0.5c0,0.7-0.2,2.7-0.4,3.3c-0.2,0.8-0.5,0.8-1.6,0.8
				c-2.2,0-3.9-0.1-5.1-0.1c-1.3-0.1-2.2-0.1-3.1-0.1c-0.3,0-1,0-1.7,0c-0.7,0-1.5,0.1-2,0.1c-0.4,0-0.6-0.1-0.6-0.3
				c0-0.1,0.1-0.2,0.5-0.2c0.4,0,0.8-0.1,1.1-0.1c0.6-0.1,0.7-0.8,0.9-1.6c0.1-1.2,0.1-3.6,0.1-6.3V59.3z"/>
			<path class="st0" d="M183.4,59.3c0-4.5,0-5.3-0.1-6.3c-0.1-1-0.3-1.5-1.3-1.7c-0.2-0.1-0.7-0.1-1.2-0.1c-0.3,0-0.5-0.1-0.5-0.3
				c0-0.2,0.2-0.3,0.7-0.3c0.8,0,1.7,0,2.4,0c0.8,0,1.5,0.1,1.9,0.1c0.9,0,6.9,0,7.4,0c0.6-0.1,1-0.1,1.3-0.2c0.1,0,0.3-0.1,0.5-0.1
				c0.1,0,0.2,0.1,0.2,0.3c0,0.2-0.1,0.6-0.2,1.9c0,0.3-0.1,1.6-0.1,2c0,0.1-0.1,0.3-0.3,0.3c-0.2,0-0.3-0.1-0.3-0.4
				c0-0.2,0-0.7-0.2-1.1c-0.2-0.5-0.5-0.9-2-1.1c-0.5-0.1-3.6-0.1-4.2-0.1c-0.1,0-0.2,0.1-0.2,0.3V60c0,0.2,0,0.3,0.2,0.3
				c0.7,0,4.1,0,4.7-0.1c0.7-0.1,1.2-0.1,1.4-0.4c0.2-0.2,0.3-0.4,0.5-0.4c0.1,0,0.2,0.1,0.2,0.2c0,0.2-0.1,0.7-0.2,2.2
				c0,0.6-0.1,1.8-0.1,2c0,0.2,0,0.6-0.3,0.6c-0.2,0-0.3-0.1-0.3-0.3c0-0.3,0-0.7-0.1-1.1c-0.1-0.6-0.6-1-1.7-1.2
				c-0.6-0.1-3.5-0.1-4.2-0.1c-0.2,0-0.2,0.1-0.2,0.3v2.3c0,1,0,3.7,0,4.6c0.1,2,0.5,2.5,3.6,2.5c0.8,0,2,0,2.8-0.4
				c0.8-0.4,1.1-1,1.3-2.2c0.1-0.3,0.1-0.4,0.3-0.4c0.2,0,0.2,0.2,0.2,0.5c0,0.7-0.2,2.7-0.4,3.3c-0.2,0.8-0.5,0.8-1.6,0.8
				c-2.2,0-3.9-0.1-5.1-0.1c-1.3-0.1-2.2-0.1-3.1-0.1c-0.3,0-1,0-1.7,0c-0.7,0-1.5,0.1-2,0.1c-0.4,0-0.6-0.1-0.6-0.3
				c0-0.1,0.1-0.2,0.5-0.2c0.4,0,0.8-0.1,1.1-0.1c0.6-0.1,0.7-0.8,0.9-1.6c0.1-1.2,0.1-3.6,0.1-6.3V59.3z"/>
			<path class="st0" d="M220,59.3c0-4.5,0-5.3-0.1-6.3c-0.1-1-0.3-1.5-1.3-1.7c-0.2-0.1-0.7-0.1-1.2-0.1c-0.3,0-0.5-0.1-0.5-0.3
				c0-0.2,0.2-0.3,0.7-0.3c1.6,0,3.4,0.1,4.3,0.1c0.9,0,2.8-0.1,4.6-0.1c3.7,0,8.7,0,11.9,3.4c1.5,1.5,2.9,4,2.9,7.5
				c0,3.7-1.6,6.6-3.2,8.3c-1.4,1.4-4.5,3.5-9.9,3.5c-1.1,0-2.3-0.1-3.4-0.2c-1.1-0.1-2.2-0.2-2.9-0.2c-0.3,0-1,0-1.7,0
				c-0.7,0-1.5,0.1-2,0.1c-0.4,0-0.6-0.1-0.6-0.3c0-0.1,0.1-0.2,0.5-0.2c0.4,0,0.8-0.1,1.1-0.1c0.6-0.1,0.7-0.8,0.9-1.6
				c0.1-1.2,0.1-3.6,0.1-6.3V59.3z M223.7,62.5c0,3.1,0,5.4,0.1,6c0,0.7,0.1,1.9,0.3,2.3c0.4,0.6,1.5,1.2,3.9,1.2c3,0,5-0.6,6.8-2.1
				c1.9-1.6,2.5-4.3,2.5-7.4c0-3.8-1.6-6.2-2.8-7.4c-2.7-2.6-6.1-3-8.4-3c-0.6,0-1.7,0.1-1.9,0.2c-0.3,0.1-0.4,0.3-0.4,0.6
				c0,1,0,3.6,0,5.9V62.5z"/>
		</g>
	</g>
</g>
</svg>
