<?xml version="1.0" encoding="utf-8"?>
<!-- Generator: Adobe Illustrator 20.0.0, SVG Export Plug-In . SVG Version: 6.00 Build 0)  -->
<svg version="1.1" id="Layer_1" xmlns="http://www.w3.org/2000/svg" xmlns:xlink="http://www.w3.org/1999/xlink" x="0px" y="0px"
	 viewBox="0 0 782 370.3" style="enable-background:new 0 0 782 370.3;" xml:space="preserve">
<style type="text/css">
	.st0{fill:#fff;}
	.st1{fill:#fff;}
</style>
<path class="st0" d="M0,256.4h38.1v6.7H8v33.7h28v6.7H8v42.9H0V256.4z"/>
<path class="st0" d="M79.7,325.8c0,8.2-7,16-15.6,16c-7.7,0-11.4-5.9-11.4-13c0-15.3,16.2-14.1,27-14.5V325.8z M80.2,346.5H88
	c-0.7-7.4-0.7-11.4-0.7-15.8v-31.7c0-16.1-13.2-16.7-19.6-16.7c-11,0-20.3,4.7-21,16.8h8c0-7.5,5.5-10.9,12.4-10.9
	c10,0,12.7,5.6,12.7,14.9v5.2c-12.7,1-34.9-1.3-34.9,20.8c0,11,6.1,18.6,17.3,18.6c7.7,0,13.9-3,17.8-9h0.3V346.5z"/>
<path class="st0" d="M110.4,346.5H103v-63.1h6.7v7.9h0.2c3-5.1,8-9,15-9c6.5,0,12.2,3.6,14.3,9.9c3.1-6.2,8.5-9.9,15.5-9.9
	c10.5,0,16,7.2,16.3,17.4v46.9h-7.5v-45.1c-0.1-6.2-2.4-13.2-9.7-13.2c-9.5,0-13.1,9.5-13.1,17.7v40.6h-7.5v-45.1
	c-0.1-6.2-2.4-13.2-9.7-13.2c-9.5,0-13.1,9.5-13.1,17.7V346.5z"/>
<path class="st0" d="M188.8,346.5v-63h7.5v63H188.8z M187.9,265.9v-9.5h9.2v9.5H187.9z"/>
<path class="st0" d="M216.5,346.5v-90.1h7.5v90.1H216.5z"/>
<path class="st0" d="M255.3,346.6l-20-63.1h8.1l15.3,51.7h0.3l14.8-51.7h7.5l-26.1,86.9H248L255.3,346.6z"/>
<path class="st0" d="M306.4,263.1h-22v-6.7h51.9v6.7h-22v83.4h-8V263.1z"/>
<path class="st0" d="M344.4,291.9h0.3c3.1-6,9.7-9.7,17.3-9.7v7.6c-10.6-0.9-17.6,5.5-17.6,16.1v40.6h-7.5v-63h7.5V291.9z"/>
<path class="st0" d="M377,310.5c0-14,2.2-22.3,14.2-22.3c12,0,14.2,8.4,14.2,22.3H377z M412.9,316.5c0-18.7,0-34.3-21.7-34.3
	c-14.1,0-21.7,8.4-21.7,26.6v15.5c0,19.1,10.9,23.5,21.7,23.5c12.6,0,20.8-5.2,21.7-20.5h-7.9c0.1,8.5-4.5,14.5-13.9,14.5
	c-11.9,0-14.2-11.6-14.2-20.3v-4.9H412.9z"/>
<path class="st0" d="M432.4,310.5c0-14,2.2-22.3,14.2-22.3c12,0,14.2,8.4,14.2,22.3H432.4z M468.3,316.5c0-18.7,0-34.3-21.7-34.3
	c-14.1,0-21.7,8.4-21.7,26.6v15.5c0,19.1,10.9,23.5,21.7,23.5c12.6,0,20.8-5.2,21.7-20.5h-7.9c0.1,8.5-4.5,14.5-13.9,14.5
	c-11.9,0-14.2-11.6-14.2-20.3v-4.9H468.3z"/>
<path class="st0" d="M515.4,279.4h9.4c21.3,0,23.2,16.7,23.2,22.8c0,9-2.7,23.8-21,23.8h-11.5V279.4z M485.9,350.6h42.6
	c33.4,0,48.9-18.6,48.9-48c0-24.1-11.2-47.7-43.1-47.7h-48.4V350.6z"/>
<path class="st0" d="M590.3,254.9h30.1l27.9,51.2h0.3v-51.2h27.9v95.6h-28.7l-29.3-52.2h-0.3v52.2h-27.9V254.9z"/>
<path class="st0" d="M723.5,316.4l9.2-29.5h0.3l8.6,29.5H723.5z M683.1,350.6h29.6l4.3-13.7h30.4l4,13.7H782l-34.8-95.6h-28.8
	L683.1,350.6z"/>
<path class="st1" d="M722.5,102.4c0,0-25.6,9.8-49.1,7.2c2-26.4-7.6-58.8-72-47.6l-7.7,7.8c0,0,62.4-13.7,64.6,36
	c-2.3-1-4.6-2.2-6.7-3.6c-13-9-24.5-15.1-34.5-19.3c0,0,0,0,0,0c-23.9-10.7-40.6-7.4-40.6-7.4c-15.8,1-22.9,12-32.3,34.5
	c-7-4.5-14.4-9.6-22.2-15.2c-14.6-13.8-28.8-11.9-28.8-11.9c-19.9,1.6-34,11.8-57.4,49.7c-8.4-15.3-17-26.8-25.1-35.3
	c-5.2-6.3-17.9-19.9-34.4-24.3c-24-6.4-31.9,4-88.3,49.5c-34.3-37.5-99-78.8-257.4-119.5l35.2,63.5c0,0,78.1-8.4,165.9,46.8
	c13.8,8.7,24.7,17.8,33.7,27.1c-4.7,3.7-9.6,7.5-14.8,11.5c-91.4,70.5-138.7,67.4-138.7,67.4c-32.8,33.6-60.2,27.6-60.2,27.6
	C121.5,291,226.5,215,285,164.6c27.9,41.2,32,77.9,93.3,76.5l12.5-3.7c2.3-0.5,4.5-1.2,6.7-2l2-0.6c0,0-0.2,0-0.5,0
	c17.7-7.5,29.9-25.1,41-46.5c12.3,14.7,27.1,24.7,49.2,26.5l17.1-2.3l0.9,0.3c3.5-0.3,6.7-0.9,9.7-1.7l3.9-0.5c0,0-0.6,0-1.5-0.2
	c26.3-9.1,35.2-40.7,42-70.7c31,15.3,65,25.8,86.5,13.7c0,0,0,0.1-0.1,0.1c0,0,15.9-9.7,18.8-13.8c0,0,2.6-6.5,4.7-15.8
	c10.1,0.7,21.3-1.1,34.4-6.8L722.5,102.4z M306.3,145.7c8.6-7.8,15-14,18.6-17.3c22.2-20.4,34.1-34.2,46-38.1
	c5.5,2.8,11.2,7.4,16.4,14.6c13.4,18.4,23.3,37.2,33,53.9c-2.8,5-5.7,10.3-8.7,15.9c-15.4,28.5-32,41.4-46.3,46.7
	c-4.1-2.8-8.4-6.1-12.9-10.2C331.5,192.5,322.9,170.2,306.3,145.7z M523.2,161.3c-11.3,26.2-23.8,36.8-34,40.6
	c-14.6-6.4-30.4-17.6-38.1-36.7c7.4-15.9,14.9-32.5,24.1-47.8c5.7-9.6,12.6-15.4,19.3-18.8c8.2,6,24,17.1,42.9,28.2
	C533.5,136.8,528.9,148.2,523.2,161.3z M565,122.5c1.2-5.1,2.4-10,3.6-14.6c3.7-12.9,11.1-19.8,19-23.2c0.4,0.1,0.7,0.2,1.1,0.4
	c26.3,9.8,45,29.1,68.4,36.3c-1,6.3-2.8,13.3-5.4,21.2C637.7,147.4,611.2,148,565,122.5z"/>
</svg>
