<?xml version="1.0" encoding="utf-8"?>
<!-- Generator: Adobe Illustrator 20.0.0, SVG Export Plug-In . SVG Version: 6.00 Build 0)  -->
<svg version="1.1" id="Layer_1" xmlns="http://www.w3.org/2000/svg" xmlns:xlink="http://www.w3.org/1999/xlink" x="0px" y="0px"
	 viewBox="0 0 263.1 76.6" style="enable-background:new 0 0 263.1 76.6;" xml:space="preserve">
<style type="text/css">
	.st0{fill:#FFFFFF;}
</style>
<g>
	<path class="st0" d="M9.7,49.1c0,0.1,0,0.2,0,0.3c-0.9,0.5-1.9,0.2-2.9,0.2c-0.5,0-1,0-1.5,0c-0.4-0.4-0.2-0.9-0.2-1.4
		c0-5.5,0-11.1,0-16.6c0-1.1-0.3-1.4-1.4-1.4c-1.1,0.1-2.2,0-3.4-0.1c0-1.1,0-2.2,0-3.3c1.1-0.3,2.2,0,3.3-0.1
		c0.4,0,0.9,0.2,1.3-0.2c0.1-2.4,0.1-4.8,0.3-7.3c0.2-3.4,2.7-6.6,6.2-7c1.5,0,3.1,0,4.6,0c0.2,0,0.5,0,0.5,0.3
		c-0.1,1.1-0.3,2.2-0.5,3.3C16,16.5,15.6,16,15.3,16c-1.4-0.1-2.7-0.3-3.9,0.6c-0.9,0.7-1.4,1.6-1.5,2.8c0,0.5,0,1-0.3,1.4
		c-0.2,1.8-0.3,3.6,0,5.4c0.1,0.1,0.2,0.2,0.3,0.3c1.4,0.3,2.9,0.2,4.3,0c0.1,0,0.2,0,0.3,0c0.8,0.9,0.3,2.1,0.3,3.1
		c0,0.4-0.6,0.3-0.9,0.3c-1.2,0.1-2.5-0.2-3.7,0.2c-0.2,0.1-0.3,0.2-0.5,0.2c-0.2,0.2-0.2,0.5-0.2,0.8c0,5.8,0,11.5,0,17.3
		C9.5,48.6,9.5,48.9,9.7,49.1z"/>
	<path class="st0" d="M5,26.5c-0.9,0.7-2,0.2-3,0.3c-0.5,0.1-1.1,0-1.6,0c0-0.1,0-0.2,0-0.3C2,26.5,3.5,26.5,5,26.5z"/>
	<path class="st0" d="M91.9,27.6c0.4,0.8,0.1,1.6,0.3,2.6c1.8-2.9,4.2-4.5,7.5-4.5c3.3,0,5.8,1.5,7.2,4.6c3.1-5,8.8-5.5,12.3-3.5
		c2.3,1.3,3.6,3.3,4.1,5.9c0.3,1.7,0.3,3.5,0.3,5.3c0,3.6,0,7.1,0,10.7c0,0.9-0.3,1.1-1.2,1.1c-3.5,0.1-3.5,0.1-3.5-3.4
		c0-3.3,0-6.6,0-9.9c0-1.6-0.2-3.2-1-4.6c-1-1.8-2.7-2.5-4.7-2.3c-2.3,0.3-3.9,1.6-4.7,3.7c-0.5,1.3-0.7,2.7-0.7,4.1
		c0,3.7,0,7.4,0,11.1c0,1-0.3,1.2-1.2,1.2c-3.4,0-3.4,0-3.4-3.3c0-3.7,0.1-7.5,0-11.2c0-2-0.4-3.9-2.4-5c-3-1.6-6.8,0.1-7.9,3.5
		c-0.4,1.2-0.6,2.4-0.5,3.6c0,3.7,0,7.5,0,11.2c0,0.9-0.2,1.2-1.1,1.2c-3.5,0-3.5,0.1-3.5-3.5c0-5.7,0-11.4,0-17.1
		c0-0.6,0-1.2-0.1-1.7c-0.2-0.9,0.1-1.2,1-1c0.6,0.4,1.3,0.2,1.9,0.1C91.3,26.6,91.7,26.9,91.9,27.6z"/>
	<path class="st0" d="M128.9,26.6c0.9-0.2,1.2,0.1,1.6,0.9c2.1,5.4,4.2,10.7,6.3,16.1c0.1,0.3,0.2,0.7,0.7,0.9
		c1.3-3.7,2.6-7.4,3.9-11.1c0.7-2.1,1.5-4.2,2.2-6.2c0.2-0.4,0.4-0.7,0.9-0.7c1.3,0,2.7,0,4.2,0c-0.6,1.6-1.2,3.1-1.7,4.5
		c-3.1,8-6.3,16.1-9.4,24.1c-1.8,4.8-4.8,6.8-9.5,6.4c-1.2-0.1-1.8-0.4-1.6-1.8c0.3-2.3,0.2-2.4,2.4-2.2c1.9,0.1,3.1-0.8,3.8-2.4
		c0.7-1.6,1.3-3.3,2-4.9c0.2-0.4,0.1-0.7,0-1c-2.9-6.7-5.8-13.4-8.6-20.1c-0.3-0.6-0.4-1.3-0.8-1.9c-0.5-1,0.1-0.8,0.7-0.7
		C127,26.8,128,26.8,128.9,26.6z"/>
	<path class="st0" d="M33,29.8c0.8,0.3,0.8-0.5,1.1-0.8c3.9-4.9,11.7-4.2,14.5,1.4c0.7,1.4,0.9,2.9,1,4.5c0,4.6,0,9.2,0,13.8
		c0,0.8-0.2,1.2-1.1,1.2c-3.5,0-3.5,0.1-3.5-3.4c0-3.6,0-7.1,0-10.7c0-1.5-0.3-2.9-1.2-4.1c-2.3-3.1-7.5-2.5-9.4,1.2
		c-0.7,1.5-1.1,3-1.1,4.7c0,3.7,0,7.4,0,11.1c0,0.9-0.3,1.2-1.2,1.2c-3.4,0-3.4,0-3.4-3.4c0-6,0-12,0-18c0.1-0.2,0.1-0.4,0.1-0.7
		c-0.1-0.9,0.3-1.2,1.1-1.1c0.9,0.1,2.1-0.4,2.7,0.2c0.6,0.5,0.1,1.7,0.2,2.6C32.9,29.6,32.9,29.7,33,29.8z"/>
	<path class="st0" d="M217,25.7c2.9,0.2,5.6,0.9,7.8,3c0.7,0.7,0.7,1.1-0.1,1.7c-0.7,0.5-1.3,1.4-2.1,1.6c-0.9,0.2-1.2-1.1-2-1.5
		c-2.2-1.3-4.4-1.7-6.6-0.3c-1.9,1.1-1.9,3.4,0,4.5c1.9,1.1,4.1,1.3,6.2,1.9c4.3,1.3,6.7,4.2,5.2,8.9c-0.7,2.2-2.3,3.6-4.4,4.2
		c-4.6,1.3-8.9,1-12.7-2.2c-1.3-1.1-1.3-1.1,0-2.2c0.7-0.5,1.3-1.4,2-1.5c0.7-0.1,1.1,1,1.8,1.5c2.1,1.5,4.4,1.8,6.8,1.2
		c1.3-0.3,2.1-1.2,2.3-2.6c0.2-1.4-0.4-2.4-1.6-3c-1.8-0.9-3.8-1.3-5.8-1.8c-5.6-1.4-6.8-6.4-4.1-10.1
		C211.3,26.4,214.2,25.9,217,25.7z"/>
	<path class="st0" d="M232,26.5c0.1-0.1,0.2-0.2,0.3-0.2c0.3-1.6,0.1-3.2,0.1-4.8c0-1.5,0-1.5,1.5-1.6c0.9,0,1.8,0.1,2.7-0.1
		c0.5,1.4,0.1,2.9,0.2,4.4c0.1,0.8,0.1,1.5,0.1,2.3c1.7,0.4,3.4,0.3,5.1,0.1c0.1,0,0.2,0,0.3,0c0.8,0.9,0.3,2,0.3,3.1
		c0,0.5-0.6,0.3-0.9,0.3c-1.3,0-2.6,0-3.9,0c-0.3,0-0.7-0.2-1,0.2c-0.2,4.4-0.2,8.8,0,13.3c0.1,2.2,1.9,3.4,4.3,2.7
		c1.3-0.4,1.8-0.3,1.7,1.2c-0.1,2.3,0,2.2-2.3,2.6c-1.5,0.2-3.1,0.2-4.5-0.3c-2.6-1-3.7-3.1-3.8-5.8c0.2-4.1,0-8.2,0.1-12.4
		c0-0.4,0.1-0.8-0.1-1.2c-1.2-0.4-2.4-0.1-3.6-0.1c-0.7,0-1-0.2-0.9-0.9c0.1-0.9-0.3-1.9,0.2-2.7C229.3,26.8,230.6,26.8,232,26.5z"
		/>
	<path class="st0" d="M20,49.6c-0.3-0.2-0.2-0.6-0.2-0.9c0-7.1,0-14.2,0-21.3c0-0.3-0.2-0.6,0.2-0.8c1.1,0.3,2.1,0.1,3.2,0.1
		c0.6,0,1,0.1,1,0.9c0,7,0,14,0,21.1c0,0.7-0.3,1-1,1C22.1,49.6,21,49.6,20,49.6z"/>
	<path class="st0" d="M22,22.3c-1.7,0-3.1-1.3-3.1-2.9c0-1.6,1.4-2.9,3.1-2.9c1.7,0,3,1.3,3,3C25.1,21.2,23.9,22.3,22,22.3z"/>
	<path class="st0" d="M76.9,49.1c-0.4-0.4-0.2-0.9-0.2-1.4c0-11.2,0-22.3,0-33.5c0-0.5-0.2-1,0.2-1.4c0,2.4,0.1,4.8,0.1,7.2
		C76.9,29.6,76.9,39.3,76.9,49.1z"/>
	<path class="st0" d="M20,49.6c0.9-0.6,1.9-0.2,2.9-0.3c0.8,0,1.2-0.2,1.2-1.1c0-6.8,0-13.5,0-20.3c0-0.9-0.3-1.1-1.2-1.2
		c-1,0-2,0.3-2.9-0.2c0.1,0,0.2-0.1,0.3-0.1c4.1-0.3,4.1-0.3,4.1,3.8c0,6.1,0,12.2,0,18.3c0,0.9-0.2,1.3-1.2,1.2
		C22.1,49.7,21,50,20,49.6z"/>
	<path class="st0" d="M9.7,49.1c-0.4-0.4-0.3-0.8-0.3-1.3c0-5.4,0-10.8,0-16.2c0-0.4-0.2-0.9,0.3-1.2C9.7,36.6,9.7,42.8,9.7,49.1z"
		/>
	<path class="st0" d="M160.7,61.5c0-4.5,0-9,0-13.4c0-0.5-0.2-1,0.2-1.4c0,4.7,0,9.5,0,14.2C161,61.1,161,61.4,160.7,61.5z"/>
	<path class="st0" d="M232.2,30.4c0.3,0.2,0.3,0.5,0.3,0.8c0,4,0,8,0,12c0,0.3,0,0.5-0.2,0.7C232.3,39.4,232.2,34.9,232.2,30.4z"/>
	<path class="st0" d="M72.6,46.4c0.4,0.5,0.6,0.9,0.3,1.6c-0.3,0.9,0,1.5,1.2,1.4c0.9-0.1,1.9,0,2.8,0c-0.1,0.8-0.7,0.4-1,0.4
		c-3.4,0.1-3.4,0.1-3.3-3.3C72.5,46.4,72.6,46.4,72.6,46.4z"/>
	<path class="st0" d="M236.6,19.8c-0.9,0.5-1.9,0.2-2.9,0.2c-0.9,0-1.2,0.3-1.2,1.1c0,1.7,0,3.4,0,5.1c0,0-0.1,0.1-0.1,0.1
		c0,0-0.1,0-0.1,0c0-1.8,0-3.7,0-5.5c0-0.8,0.2-1.2,1-1.1C234.3,19.8,235.4,19.8,236.6,19.8z"/>
	<path class="st0" d="M236.9,30.2c0.4-0.7,1.1-0.3,1.6-0.4c0.5-0.1,1.1,0,1.6,0c2.7,0,3.1-0.6,2.2-3.3c0.9-0.1,0.6,0.6,0.6,1
		c0.1,2.6,0.1,2.6-2.5,2.6C239.2,30.2,238,30.2,236.9,30.2z"/>
	<path class="st0" d="M5.3,49.6C5.5,49,6.2,49,6.4,49.1c1.1,0.5,2.2,0.1,3.2,0.2c0,0.2,0,0.4-0.2,0.4C8.1,49.7,6.7,50,5.3,49.6z"/>
	<path class="st0" d="M33,29.8c-0.6-0.6-0.2-1.4-0.3-2.1c0-0.7-0.3-1-1-0.9c-0.2,0-0.4,0-0.7,0c-1.3-0.2-2.4-0.1-2.4,1.6
		c-0.1-2-0.1-2,1.7-2c2.8,0,2.8,0,2.7,2.8C33.1,29.5,33,29.6,33,29.8z"/>
	<path class="st0" d="M10.2,30.1c0.8-0.6,1.8-0.3,2.7-0.3c1.9-0.1,1.9,0,1.9-2c0-0.5-0.1-0.9-0.3-1.3c0.4-0.1,0.5,0.1,0.6,0.5
		c0.4,3,0.3,3.1-2.7,3.1C11.7,30.2,10.9,30.2,10.2,30.1z"/>
	<path class="st0" d="M16.2,12.2c-1.5,0.3-3.1,0.4-4.6,0C13.1,11.9,14.6,12,16.2,12.2z"/>
	<path class="st0" d="M9.7,26.3c-0.5,0.1-0.3-0.3-0.3-0.5c0.1-1.6-0.4-3.3,0.3-4.9C9.7,22.7,9.7,24.5,9.7,26.3z"/>
	<path class="st0" d="M242,26.6c-1.7,0.4-3.4,0.5-5.1-0.1C238.6,26.5,240.3,26.5,242,26.6z"/>
	<path class="st0" d="M197.5,35.5c-0.3,0.5-0.8,0.7-1.4,0.4c-0.9-0.4-1.8,0.2-2.7-0.4C194.8,35.5,196.2,35.5,197.5,35.5z"/>
	<path class="st0" d="M14.3,26.6c-1.4,0.4-2.9,0.5-4.3,0C11.4,26.5,12.8,26.5,14.3,26.6z"/>
	<path class="st0" d="M255.8,50.1c1-0.7,1.6,0.2,2.4,0.5C257.4,50.8,256.6,50.6,255.8,50.1z"/>
	<path class="st0" d="M91.9,27.6c-0.4-0.7-1-0.8-1.7-0.8c-0.5,0-1.2,0.5-1.6-0.2c0.7,0,1.5,0,2.2-0.1C91.8,26.4,91.9,26.9,91.9,27.6
		z"/>
	<path class="st0" d="M232,26.5c-1.3,0.5-2.7,0.4-4,0.1C229.3,26.4,230.6,26.5,232,26.5z"/>
	<path class="st0" d="M160.7,26.6c-1.3,0.5-2.7,0.4-4.1,0C158,26.4,159.3,26.5,160.7,26.6z"/>
	<path class="st0" d="M128.9,26.6c-1,0.5-2,0.5-3,0C127,26.6,128,26.6,128.9,26.6z"/>
	<path class="st0" d="M245,15.4c0.7-0.4,1.4-0.3,2.1,0C246.4,15.6,245.7,15.6,245,15.4z"/>
	<path class="st0" d="M72.6,46.4c-0.8,0-0.9,0.8-1.3,1.2c-5.2,4.9-14.3,3.3-17.4-3.1c-2.4-5-2.3-9.9,1.2-14.5
		c3.9-5.2,11.9-5.6,16.5-1c0.2,0.2,0.4,0.4,0.9,0.8c0-0.6,0-1,0-1.4c0-4.9,0-9.8,0-14.6c0-0.9,0.2-1.4,1.2-1.2
		c1.1,0.2,2.3-0.3,3.4,0.3c-0.2,0.3-0.1,0.7-0.1,1.1c0,11.4,0,22.8,0,34.2c0,0.4-0.1,0.7,0.1,1.1c0,0.1,0,0.2,0,0.3
		c-1.2,0.5-2.4,0.2-3.6,0.2c-0.6,0-0.6-0.5-0.6-1C72.6,47.8,72.9,47.1,72.6,46.4z M72.6,38.3c0.1-4.8-3.3-8.6-7.8-8.7
		c-4.4-0.1-7.7,3.4-7.8,8.3c-0.1,4.7,3.1,8.8,7.7,8.6C69.2,46.5,72.5,43,72.6,38.3z"/>
	<path class="st0" d="M160.7,26.6c0.6,1,0,2.2,0.4,3.4c1.2-1.3,2.3-2.5,3.9-3.2c6.9-2.9,14.1,0.7,15.8,8c1.2,5.1,0.1,9.7-4.1,13.3
		c-3.8,3.2-11.5,3.4-14.9-1.1c-0.2-0.2-0.3-0.8-0.8-0.3c-0.2,3.1,0,6.2-0.1,9.3c-0.1,1.8,0.2,3.7-0.1,5.5c-1.1,0-2.3,0-3.4,0.1
		c-0.7,0-0.9-0.2-0.9-0.9c0-11.1,0-22.3,0-33.4c0-0.2,0-0.5,0.2-0.6C158,26.8,159.3,26.8,160.7,26.6z M176.4,38.2
		c0-4.9-3.3-8.6-7.7-8.6c-4.3,0-7.9,3.8-7.9,8.4c0,4.9,3.3,8.5,7.8,8.5C173.1,46.5,176.4,43,176.4,38.2z"/>
	<path class="st0" d="M197.5,35.5c0.6-0.4,1.8,0.4,2.1-0.6c0.4-1.2-0.8-3.6-2-4.3c-3-1.7-6-1.2-8.8,0.5c-1.7,1-1.6,1.1-2.9-0.4
		c-1.3-1.4-1.3-1.5,0.4-2.5c3.9-2.4,8.1-3.2,12.5-1.5c3.5,1.3,5.2,4.3,5.3,8.5c0,4.3,0,8.6,0.1,12.9c0,1.9,0.1,1.9-1.7,1.9
		c-2.5,0-2.5,0-2.7-3.2c-1.1,1.1-2.1,2.1-3.4,2.8c-2.8,1.5-8.4,0.9-10.7-1.1c-3.1-2.8-3.6-9.5,2.6-11.6c1.7-0.6,3.5-1.1,5.4-1.2
		C194.8,35.6,196.2,36,197.5,35.5z M199.7,39.5c0-0.8-0.4-1-1.1-0.9c-1.7,0.1-3.5,0.3-5.2,0.4c-1.3,0.1-2.5,0.5-3.7,1.2
		c-2.1,1.3-2.3,4.2-0.2,5.6c1,0.7,2.2,0.8,3.3,0.8C197.5,46.8,199.5,43.4,199.7,39.5z"/>
	<circle class="st0" cx="207.8" cy="66.5" r="7.2"/>
	<circle class="st0" cx="229.5" cy="70.7" r="5.8"/>
	<circle class="st0" cx="248" cy="62.3" r="5.8"/>
	<circle class="st0" cx="258.1" cy="45.7" r="5"/>
	<circle class="st0" cx="257.2" cy="26.3" r="5"/>
	<circle class="st0" cx="246.1" cy="10.9" r="4.6"/>
	<circle class="st0" cx="229.5" cy="4" r="4"/>
	<circle class="st0" cx="212.2" cy="6.3" r="4"/>
	<circle class="st0" cx="199.4" cy="16" r="3.3"/>
</g>
</svg>
