<?xml version="1.0" encoding="utf-8"?>
<!-- Generator: Adobe Illustrator 20.0.0, SVG Export Plug-In . SVG Version: 6.00 Build 0)  -->
<svg version="1.1" id="Layer_1" xmlns="http://www.w3.org/2000/svg" xmlns:xlink="http://www.w3.org/1999/xlink" x="0px" y="0px"
	 viewBox="0 0 124.2 103" style="enable-background:new 0 0 124.2 103;" xml:space="preserve">
<style type="text/css">
	.st0{fill:#FFFFFF;}
	.st1{fill:none;stroke:#FFFFFF;stroke-width:3.6;}
</style>
<g>
	<path class="st0" d="M121.4,88.9l-5.2,0.1L116,75.2c-1.1-1.4-2.9-0.9-4.5-0.8c-0.3,0.2-0.8,0.2-0.9,0.7v1.4
		c-4.3-1.9-8.8-3.2-13.1-4.9l-18.1,2.1l-57.1,6.8c-2.8,0-5.4,2.2-6.7,4.7c-0.9,2.2-0.7,4.9,0.7,6.8l1.7,1.9l-3,0.4l-2.8,0.4
		l-0.1-14.9c-1-1.3-2.9-1-4.3-0.8c-0.3,0.2-0.8,0.4-0.8,0.8v15.7l-6.1,0.8L1,98.1c7.9-1,15.7-2.2,23.6-3.2c-1.3-0.5-2.8-0.7-4-1.3
		c-1.6-0.5-3-2.3-3.4-3.8c-0.6-2.6,0.8-4.8,2.9-6.3c2.6-1.7,6.2-1.6,9.4-1.4l22.7,2.6c7.4,0.7,14.9,1.8,22.4,2.5
		c0,0.1,0.1,0.1,0.1,0.2l0.1-0.1l2.7,0.3l23.2,2.6l21,2.3L121.4,88.9z M110.6,88.4l-9.8-1.1l-26.6-2.9l-34.7-3.7l30.2-3.1l0.1,0.1
		l0.1-0.1l26-2.8l1.4,0.1l13.3,4.4V88.4z"/>
	<g>
		<g>
			<path class="st0" d="M13.4,72.4c0.1,1.1-0.6,2.3-1.7,2.9c-0.8,0.4-1.7,0.6-2.6,0.4c-1.5-0.5-2.6-1.9-2.7-3.5
				c0.2-0.4-0.1-1,0.4-1.2L13.4,72.4z"/>
		</g>
		<g>
			<path class="st0" d="M115.7,68.4c0.2,1.5-0.4,2.9-1.7,3.8c-0.8,0.4-1.7,0.7-2.6,0.4c-1.1-0.4-2.5-1.5-2.5-2.8v-0.3
				C111.2,69.3,113.4,68.7,115.7,68.4z"/>
		</g>
	</g>
	<path class="st0" d="M23.6,2.4L13.5,57.3l-2.2,11.5L11,69.5c-0.3,0.3-0.8,0.4-1.3,0.2c-0.4-0.2-0.9-0.7-0.8-1.2l3.1-66.3L23.6,2.4z
		"/>
	<path class="st0" d="M106.6,94.3h3.6v1h-1.1v2.9h-1.3v-2.9h-1.1V94.3z"/>
	<path class="st0" d="M110.7,98.2v-3.9h1.5l0.7,2.4l0.7-2.4h1.5v3.9H114V97l0-0.6l0.1-0.7h0l-0.7,2.5h-0.9l-0.7-2.5h0l0.1,0.6l0,0.6
		v1.3H110.7z"/>
	<g>
		<path class="st0" d="M82.4,26.2c0.8-0.1,1.8-0.3,2.7-0.5l0.1,2.8c-0.9,0.4-1.9,0.4-2.8,0.8v6.4l-2.6,0.7l-0.1-12.2
			c0.8-0.3,1.7-0.5,2.6-0.7V26.2z"/>
		<path class="st0" d="M107.6,19.3L106,2.7L94.9,2.2c1.3,4.6,2.4,9.7,3.4,14.5c-2.4-0.9-5-2.3-7.6-3.4c-1.1,0.3-2.2,0.3-3.2,0.9
			c0,1.4-0.1,3,0.1,4.4c-7.2-2.3-13.9-6.8-21.7-8.1c-7.2-0.9-13.3,2.7-17.3,8.4l-1.5,2.5c-4.7-1.5-9.4-5.8-15.2-3.4
			c-5.1,1.6-9.2,6.9-10,12.1l0.2,0.3l7.1-1.7c0.1-2.2,2.2-4,4.1-4.6c1.1-0.1,2.3-0.2,3.2,0.4c0.8,0.5,0.9,1.5,0.7,2.3
			c-1.7,2.8-4.2,5-6.4,7.6l-9.2,10.4c0.1,0.9-0.1,1.9,0.2,2.7l22.3-5c0.3-1.3,0.1-3.1,0.2-4.6c-3.4,0.5-6.8,1.4-10.2,2.3
			c4.2-5.9,13.7-11.4,8.6-19.4c1.1,0.4,2.4,1.1,3.6,1.7c-1.7,4.1-1.4,9.8,1.4,13.3c2.2,2.7,5.4,4,8.7,4l11.3-2.6
			c5.9-4.2,9.7-10.7,8-18c-0.6-2.2-2-4.2-3.8-5.8c5.2,2.2,10.3,4.4,15.4,6.7l0.1,12.8c0.8-0.4,1.7-0.4,2.6-0.6l0.1-7.2
			c0.4-0.5,0.9-0.8,1.5-0.5l0.5,0.7v6.3c0.7,0.2,1.7-0.2,2.5-0.3l0.1-0.2c-0.1-2.7,0.3-5.7-0.3-8.2c1.7,0.5,3.6,1.4,5.5,2.1
			c0.8,3.4,1.6,6.7,2.3,10.1c-2-1-4-1.9-6-2.6c-5.6,1.4-11.3,2.6-17,3.8L30.6,47c-3.6,1-7.4,1.6-11,2.5l-0.1,2.2
			c0.7,0.4,1.4,0.5,2,0.8c-1.5,1.3-1.7,3.2-1.4,5c0.3,1.1,1,2.3,2.1,2.9c2.3-0.9,5.7,0.2,6.8-2.7c-0.6-0.5-1.6-0.7-2.3-1
			c-0.4,0.6-0.9,1.6-1.7,1.7c-0.8,0-1.6-0.4-1.9-1.1c-0.2-0.7-0.4-1.6-0.1-2.2c0.3-0.6,0.7-1,1.3-1.3c0.7-0.1,1.4,0.1,1.8,0.6
			c0.8-0.5,1.6-1,2.3-1.6c-0.2-0.6-1-1-1.4-1.4c0.8,0.1,1.8,0.6,2.8,0.8l0.1,6.6L30,59l7-1.3c0.1-0.5,0.1-1.1,0.1-1.6
			c-1.3,0-2.6,0.4-3.9,0.7c-1.1-2.5,2.3-1.3,3.4-2.1c0.1-0.7,0.1-1.6,0.1-2.3c-1.1,0-2.3,0.4-3.5,0.6v-1.3c1.3-0.5,2.9-0.4,4.1-1
			l0.1-2.7l1.6,0.5l0.1,8.8c1,0.2,1.9-0.4,3-0.4l0.1-4.7h0.1l3.8,3.9l3.3-0.7l0.1-9.8l1.3,0.3c0.2,0.7-0.1,1.6,0.2,2.3l2.5-0.4
			c0.1,2.3-0.1,4.8,0.2,7l3.1-0.6v-7c0.8-0.2,1.8-0.3,2.6-0.6v-3l1.3,0.5c0.7,3.1-1.9,8.3,2.5,8.9l5.5-1c2.6-2.6,1.4-7,1.7-10.7
			c0.8,0.4,1.7,0.4,2.3,1v8.9c1.3-0.2,2.6-0.4,3.9-0.8v-2.6l3.7,2c1.6-0.4,3.2-0.5,4.8-1c-1.3-1-2.8-1.7-4.1-2.6
			c1.3-0.8,2-2.3,1.7-3.8c-0.3-1.3-1.7-2-2.7-2.4c1.4,0.2,2.9,0.5,4.3,1l3.1,2.9v4.5c1.3,0.1,2.5-0.5,3.9-0.5l0.1-4.4l4.7-7.5
			c2.3,0.6,4.9,1.7,7.3,2.6l3.3,14.3l-10.4-4.2l-32.5,5.8L22,61.7c-0.8-0.1-1.5,0.3-2.4,0.4l0.4,2.5l1.3,0.5l0.1,13.1l0.2,0.2
			c1.9-0.3,3.7-0.5,5.5-0.9v-2.9l8.2-1l0.2-0.2v-4c-2.7,0.2-5.5,0.6-8.3,1v-2.7l8.9-1.3l0.2-0.2v-4.7c1.6,0.6,3.3,1.1,5,1.6
			c-2.5,2.2-4.2,5.3-3.1,8.6c0.7,1.9,2.7,3.2,4.4,3.8c6.7-0.4,13.3-1.6,19.9-2.3c2-1.1,3.6-3.3,4-5.5c0.5-3.3-2.1-5.9-4.7-7.4
			c-1.7-0.9-3.5-1.7-5.6-1.8c1.7-0.4,3.7-0.6,5.6-0.9c4.1,2.4,8.3,4.7,12.5,7.1c-2.8,2.6-5.8,5.3-8.4,8c3.1-0.2,6.1-0.7,9.2-1.1
			l4.4-4.1l5.2,2.9c3.1-0.4,6.2-0.5,9.2-1.2c-3.2-2.1-6.4-4-9.5-5.9v-0.1l11.9-11l11.4,4.1l2.5,10.8c0.1,0.4,0.4,0.5,0.8,0.7
			c0.7,0.2,1-0.3,1.4-0.8v-2.5L107.6,19.3z M68.1,27.7c-2.4,3.7-6.4,5.9-10.7,5.2c-1.7-0.5-3.5-1.6-4.4-3.3c-1.1-2.6-0.5-6,1.3-8.2
			c2.6-3,6.1-5.2,10.1-4.4c1.4,0.4,2.7,1.1,3.7,2.5C69.8,21.8,69.6,25.4,68.1,27.7z M93.5,20.9c-0.8,0.1-1.5,0.2-2,0.8l-0.8,1.1
			l0.1-8.9l8.2,3.7c0.5,2,1,4.1,1.4,6.2L93.5,20.9z M46.5,53.2l-5.6-5.7l5.6,1.9C46.4,50.8,46.6,51.6,46.5,53.2z M66.5,49.3
			c-0.1,0.5-0.5,1-1,1.2c-0.6,0.1-1.1-0.2-1.3-0.8l-0.1-7.3l2.4,1V49.3z M77.9,44.7L76.4,45c0.1-0.8-0.7-2.8,1-2.4
			c0.5,0,1,0.3,1.3,0.8C78.6,43.9,78.4,44.4,77.9,44.7z M89.3,42.2c-1.1-1.2-2.3-2.3-3.2-3.5l4.3,0.8C90.1,40.4,88.6,41.5,89.3,42.2
			z M59.3,66.3c0.3,1.5-0.8,2.8-1.9,3.7c-3.2,2.2-8.1,2.8-11.6,0.8c-0.7-0.4-1.2-1.1-1.2-1.9c0.7-3.3,4.3-4.6,7.1-5.1
			C54.5,63.9,57.7,63.7,59.3,66.3z M79.8,60.8l-7.4-4.5l0.1-0.2c3.4,0.7,6.7,1.4,10.1,2.1L79.8,60.8z"/>
	</g>
	<rect x="1.7" y="1.8" class="st1" width="120.4" height="99.2"/>
</g>
</svg>
