<?xml version="1.0" encoding="utf-8"?>
<!-- Generator: Adobe Illustrator 20.0.0, SVG Export Plug-In . SVG Version: 6.00 Build 0)  -->
<svg version="1.1" id="Layer_1" xmlns="http://www.w3.org/2000/svg" xmlns:xlink="http://www.w3.org/1999/xlink" x="0px" y="0px"
	 viewBox="0 0 417 417" style="enable-background:new 0 0 417 417;" xml:space="preserve">
<style type="text/css">
	.st0{fill:#FFFFFF;}
</style>
<g>
	<path class="st0" d="M118.9,112.1h81.9c3.8,0,6.8-3.1,6.8-6.8c0-3.8-3.1-6.8-6.8-6.8h-81.9c-3.8,0-6.8,3.1-6.8,6.8
		C112.1,109,115.1,112.1,118.9,112.1L118.9,112.1z M118.9,112.1"/>
	<path class="st0" d="M159.8,221.3h-54.6c-3.8,0-6.8,3.1-6.8,6.8c0,3.8,3.1,6.8,6.8,6.8h54.6c3.8,0,6.8-3.1,6.8-6.8
		C166.7,224.4,163.6,221.3,159.8,221.3L159.8,221.3z M159.8,221.3"/>
	<path class="st0" d="M139.4,187.2c0-3.8-3.1-6.8-6.8-6.8h-41c-3.8,0-6.8,3.1-6.8,6.8c0,3.8,3.1,6.8,6.8,6.8h41
		C136.3,194,139.4,190.9,139.4,187.2L139.4,187.2z M139.4,187.2"/>
	<path class="st0" d="M91.6,153h95.6c3.8,0,6.8-3.1,6.8-6.8c0-3.8-3.1-6.8-6.8-6.8H91.6c-3.8,0-6.8,3.1-6.8,6.8
		C84.8,150,87.8,153,91.6,153L91.6,153z M91.6,153"/>
	<path class="st0" d="M214.5,221.3h-27.3c-3.8,0-6.8,3.1-6.8,6.8c0,3.8,3.1,6.8,6.8,6.8h27.3c3.8,0,6.8-3.1,6.8-6.8
		C221.3,224.4,218.2,221.3,214.5,221.3L214.5,221.3z M214.5,221.3"/>
	<path class="st0" d="M311.9,273.3c-2.7,2.7-2.7,7,0,9.7l14.5,14.5c1.3,1.3,3.1,2,4.8,2c1.7,0,3.5-0.7,4.8-2c2.7-2.7,2.7-7,0-9.7
		l-14.5-14.5C318.9,270.6,314.6,270.6,311.9,273.3L311.9,273.3z M311.9,273.3"/>
	<path class="st0" d="M402.4,354.2l-47.8-47.8c-1.3-1.3-3-2-4.8-2h0c-1.8,0-3.6,0.7-4.8,2l-19.2,19.4c-2.7,2.7-2.6,7,0,9.7
		c2.7,2.7,7,2.7,9.7,0l14.4-14.5l43,43c3.9,3.9,6,9,6,14.5c0,5.5-2.1,10.6-6,14.5c-8,8-21,8-29,0l-80.9-80.9c-2.7-2.7-7-2.7-9.7,0
		c-2.7,2.7-2.7,7,0,9.7l80.9,80.9c6.6,6.7,15.4,10,24.1,10c8.7,0,17.5-3.3,24.1-10c6.4-6.4,10-15,10-24.1
		C412.4,369.2,408.9,360.6,402.4,354.2L402.4,354.2z M402.4,354.2"/>
	<path class="st0" d="M330.5,166.7C330.5,76.4,257,2.9,166.7,2.9S2.8,76.4,2.8,166.7s73.5,163.8,163.8,163.8S330.5,257,330.5,166.7
		L330.5,166.7z M166.7,316.9c-82.8,0-150.2-67.4-150.2-150.2c0-82.8,67.4-150.2,150.2-150.2c82.8,0,150.2,67.4,150.2,150.2
		C316.9,249.5,249.5,316.9,166.7,316.9L166.7,316.9z M166.7,316.9"/>
	<path class="st0" d="M166.7,30.2c-75.3,0-136.5,61.2-136.5,136.5c0,75.3,61.2,136.5,136.5,136.5S303.2,242,303.2,166.7
		C303.2,91.4,242,30.2,166.7,30.2L166.7,30.2z M166.7,289.6c-67.8,0-122.9-55.1-122.9-122.9S98.9,43.8,166.7,43.8
		s122.9,55.1,122.9,122.9S234.4,289.6,166.7,289.6L166.7,289.6z M166.7,289.6"/>
	<path class="st0" d="M241.8,180.3h-81.9c-3.8,0-6.8,3.1-6.8,6.8c0,3.8,3.1,6.8,6.8,6.8h81.9c3.8,0,6.8-3.1,6.8-6.8
		C248.6,183.4,245.5,180.3,241.8,180.3L241.8,180.3z M241.8,180.3"/>
	<path class="st0" d="M241.8,139.4h-27.3c-3.8,0-6.8,3.1-6.8,6.8c0,3.8,3.1,6.8,6.8,6.8h27.3c3.8,0,6.8-3.1,6.8-6.8
		C248.6,142.4,245.5,139.4,241.8,139.4L241.8,139.4z M241.8,139.4"/>
</g>
</svg>
