<?xml version="1.0" encoding="utf-8"?>
<!-- Generator: Adobe Illustrator 20.0.0, SVG Export Plug-In . SVG Version: 6.00 Build 0)  -->
<svg version="1.1" id="Layer_1" xmlns="http://www.w3.org/2000/svg" xmlns:xlink="http://www.w3.org/1999/xlink" x="0px" y="0px"
	 viewBox="0 0 110 110" style="enable-background:new 0 0 110 110;" xml:space="preserve">
<style type="text/css">
	.st0{fill:url(#SVGID_1_);}
	.st1{fill:#899399;}
</style>
<g>
	<radialGradient id="SVGID_1_" cx="55" cy="55" r="55" gradientUnits="userSpaceOnUse">
		<stop  offset="0" style="stop-color:#B5BCBE"/>
		<stop  offset="0.4524" style="stop-color:#C9D0D1"/>
		<stop  offset="0.8333" style="stop-color:#D4DBDC"/>
		<stop  offset="0.9343" style="stop-color:#D2D8D9"/>
		<stop  offset="0.9949" style="stop-color:#CBD0D1"/>
		<stop  offset="1" style="stop-color:#CACFD0"/>
	</radialGradient>
	<path class="st0" d="M55,110C24.6,110,0,85.4,0,55S24.6,0,55,0s55,24.6,55,55S85.4,110,55,110z"/>
	<path class="st1" d="M72.4,79.3c0,0-0.5,0.1-1.1,0.5c-0.3-1.8-0.6-6.7-0.8-8c0.6-0.5,1.4-1.5,2-2.3s2.2-6.3,2.7-8.6
		c0.3,0.1,0.9,0.6,1.6,0.2c0.7-0.4,1.3-2.2,1.7-3.3c0.4-1,1.4-4.7,1.6-6.2c0.2-1.5,0.7-3.5,0.2-4c-0.4-0.4-1.2-1.4-3-0.5
		c0.3-2.8,0.3-11.1-0.5-16.4c-0.8-5.3-4.1-8.4-7.8-11.8c-3.7-3.3-10.6-4.8-14-4.8c-3.5,0-10.3,1.5-14,4.8c-3.7,3.3-7,6.5-7.8,11.8
		c-0.8,5.3-0.8,13.7-0.5,16.4c-1.8-0.9-2.6,0.1-3,0.5c-0.6,0.6-0.1,2.5,0.2,4c0.2,1.5,1.2,5.2,1.6,6.2c0.5,1.2,1,2.9,1.7,3.3
		c0.7,0.4,1.3-0.1,1.6-0.2c0.5,2.4,2.1,7.8,2.7,8.6c0.6,0.8,1.4,1.8,2,2.3c-0.1,1.3-0.5,6.1-0.8,8c-0.6-0.4-1.1-0.5-1.1-0.5
		s-21.3,8.2-25.1,10.6C22.6,102.2,37.9,110,55,110s32.4-7.8,42.5-20.1C93.8,87.5,72.4,79.3,72.4,79.3z"/>
</g>
</svg>
