<?xml version="1.0" encoding="utf-8"?>
<!-- Generator: Adobe Illustrator 20.0.0, SVG Export Plug-In . SVG Version: 6.00 Build 0)  -->
<svg version="1.1" id="Capa_1" xmlns="http://www.w3.org/2000/svg" xmlns:xlink="http://www.w3.org/1999/xlink" x="0px" y="0px"
	 viewBox="0 0 86.9 107.7" style="enable-background:new 0 0 86.9 107.7;" xml:space="preserve">
<style type="text/css">
	.st0{fill:#FFFFFF;}
</style>
<g>
	<path class="st0" d="M86.4,71.3L81.2,66c-0.7-0.7-1.8-0.7-2.5,0L66,78.7c-0.7,0.7-0.7,1.8,0,2.5l1.9,1.9l-3.3,3.3
		C64,87.1,63,87.5,62,87.5l-7.8-0.2v-6.6l27-27c0.7-0.7,0.7-1.8,0-2.5L76,46c-0.7-0.7-1.8-0.7-2.5,0L47.9,71.7
		c-0.9-0.3-1.9-0.5-2.9-0.5c-2.3,0-4.5,0.9-6.1,2.3c-8-2.6-13.5-10.2-13.5-18.6c0-2.3,0.4-4.6,1.2-6.8c1.5-0.3,2.9-0.9,4.1-1.7
		l5.5,5.4c0,0,0,0,0,0c0,0,0.1,0,0.1,0.1c0,0,0,0,0.1,0c0,0,0.1,0,0.1,0.1c0,0,0,0,0.1,0c0,0,0,0,0.1,0c0,0,0.1,0,0.1,0
		c0,0,0,0,0.1,0c0,0,0.1,0,0.1,0c0,0,0,0,0,0l8,2.6l3.6,3.6c0.7,0.7,1.6,1.1,2.5,1.1c0.9,0,1.8-0.4,2.5-1.1l4.8-4.8
		c1.4-1.4,1.4-3.7,0-5.1L54.9,45l-2.5-8.1c0,0,0,0,0-0.1c0,0,0-0.1,0-0.1c0,0,0-0.1,0-0.1c0,0,0,0,0-0.1c0,0,0-0.1-0.1-0.1
		c0,0,0,0,0,0c0,0-0.1-0.1-0.1-0.1c0,0,0,0,0,0c0,0-0.1-0.1-0.1-0.1c0,0,0,0,0,0l0,0c0,0,0,0,0,0L30.3,14.7c-1-1-2.4-1.6-3.9-1.6
		c-1.4,0-2.8,0.5-3.8,1.5l-7.2-7.2c0.3-0.6,0.4-1.3,0.4-2c0-1.4-0.6-2.8-1.6-3.8c-1-1-2.4-1.6-3.8-1.6S7.7,0.6,6.6,1.6L1.6,6.6
		C0.6,7.7,0,9,0,10.5s0.6,2.8,1.6,3.8c1.1,1.1,2.4,1.6,3.8,1.6c0.7,0,1.4-0.1,2-0.4l7.2,7.2c-2.1,2.1-2,5.5,0.1,7.6l0.6,0.6
		c0.1,0.1,0.1,0.1,0.2,0.2c-1.2,1.8-1.9,3.9-1.9,6.2c0,1.1,0.2,2.2,0.5,3.2c-2.2,4.6-3.3,9.5-3.3,14.5c0,7.8,2.6,15.2,7.4,21.3
		c4.5,5.7,10.7,9.8,17.7,11.7v8.9h-7.5c-4,0-7.3,3.3-7.3,7.3v1.9c0,1,0.8,1.7,1.7,1.7h44.6c1,0,1.7-0.8,1.7-1.7v-1.9
		c0-4-3.3-7.3-7.3-7.3h-7.5v-6L62,91c0,0,0,0,0,0c2,0,3.8-0.8,5.2-2.1l3.3-3.3l0.9,0.9c0.3,0.3,0.8,0.5,1.2,0.5
		c0.4,0,0.9-0.2,1.2-0.5l12.7-12.7C87.1,73.1,87.1,72,86.4,71.3z M74.8,49.7l2.8,2.8L53.4,76.6c-0.6-1.2-1.4-2.3-2.4-3.2L74.8,49.7z
		 M17.1,37.2c0-4.2,3.4-7.5,7.5-7.5s7.5,3.4,7.5,7.5s-3.4,7.5-7.5,7.5S17.1,41.4,17.1,37.2z M49.9,40.7l1.5,4.7l-5.9,5.9l-4.7-1.5
		L49.9,40.7z M56,51.2L51.2,56c0,0-0.1,0-0.2,0l-2.7-2.7l5-5l2.7,2.7C56.1,51.1,56.1,51.2,56,51.2z M26.4,16.6c0.5,0,1,0.2,1.4,0.6
		l20.3,20.2L37.5,48.1L33.3,44c1.5-1.9,2.3-4.2,2.3-6.8c0-6.1-4.9-11-11-11c-2.6,0-4.9,0.9-6.8,2.3c0,0-0.1-0.1-0.1-0.1l-0.6-0.6
		c-0.8-0.8-0.8-2,0-2.8l7.9-7.9C25.4,16.8,25.9,16.6,26.4,16.6z M13.3,10.2l6.9,6.9l-3.1,3.1l-6.9-6.9L13.3,10.2z M4,11.8
		c-0.4-0.4-0.6-0.8-0.6-1.4c0-0.5,0.2-1,0.6-1.4L9.1,4c0.4-0.4,0.8-0.6,1.4-0.6c0.5,0,1,0.2,1.4,0.6c0.4,0.4,0.6,0.8,0.6,1.4
		s-0.2,1-0.6,1.4l-5.1,5.1C6,12.6,4.8,12.6,4,11.8z M21,74c-4.4-5.5-6.7-12.1-6.7-19.1c0-3.6,0.6-7.2,1.9-10.6
		c1.7,2,4.1,3.4,6.8,3.8c-0.7,2.2-1,4.4-1,6.7c0,9.6,6,18.1,14.8,21.5c-0.6,1.2-0.9,2.5-0.9,3.9v3.8C30.1,82.4,24.8,78.8,21,74z
		 M65.6,104.1v0.1H24.5v-0.1c0-2.1,1.7-3.8,3.8-3.8h33.4C63.9,100.3,65.6,102,65.6,104.1z M39.4,96.8V80.4c0-3.1,2.6-5.7,5.7-5.7
		c3.1,0,5.7,2.6,5.7,5.7v16.4H39.4z M72.5,82.7l-2.8-2.8l10.2-10.2l2.8,2.8L72.5,82.7z"/>
	<path class="st0" d="M24.6,39c1,0,1.7-0.8,1.7-1.7s-0.8-1.7-1.7-1.7h0c-1,0-1.7,0.8-1.7,1.7S23.7,39,24.6,39z"/>
	<path class="st0" d="M45.1,80.1c-0.5,0-0.9,0.2-1.2,0.5c-0.3,0.3-0.5,0.8-0.5,1.2c0,0.5,0.2,0.9,0.5,1.2c0.3,0.3,0.8,0.5,1.2,0.5
		c0.5,0,0.9-0.2,1.2-0.5c0.3-0.3,0.5-0.8,0.5-1.2c0-0.5-0.2-0.9-0.5-1.2C46,80.3,45.5,80.1,45.1,80.1z"/>
</g>
</svg>
