<?xml version="1.0" encoding="utf-8"?>
<!-- Generator: Adobe Illustrator 20.0.0, SVG Export Plug-In . SVG Version: 6.00 Build 0)  -->
<svg version="1.1" id="Layer_1" xmlns="http://www.w3.org/2000/svg" xmlns:xlink="http://www.w3.org/1999/xlink" x="0px" y="0px"
	 viewBox="0 0 121.2 91" style="enable-background:new 0 0 121.2 91;" xml:space="preserve">
<style type="text/css">
	.st0{fill:none;stroke:#FFFFFF;stroke-width:4;stroke-linecap:round;stroke-linejoin:round;stroke-miterlimit:10;}
</style>
<g>
	<circle class="st0" cx="31.2" cy="38.4" r="6.1"/>
	<circle class="st0" cx="60.3" cy="37.8" r="4.5"/>
	<line class="st0" x1="60.3" y1="14.7" x2="60.3" y2="2.8"/>
	<line class="st0" x1="43.2" y1="32.3" x2="2.8" y2="32.3"/>
	<line class="st0" x1="51" y1="17.3" x2="41.2" y2="17.3"/>
	<circle class="st0" cx="89.7" cy="38.4" r="6.1"/>
	<line class="st0" x1="77.7" y1="32.3" x2="118" y2="32.3"/>
	<line class="st0" x1="69.8" y1="17.3" x2="79.5" y2="17.3"/>
	<path class="st0" d="M76.8,35.3c0,9.3-7.3,16.9-16.4,16.9l0,0c-9,0-16.4-7.5-16.4-16.9v-3.9c0-9.3,7.3-16.9,16.4-16.9l0,0
		c9,0,16.4,7.5,16.4,16.9V35.3z"/>
	<line class="st0" x1="52.2" y1="24.3" x2="68.5" y2="24.3"/>
</g>
<path class="st0" d="M14,82.4c2.4-2.2,5.6-3.6,9.1-3.6c2.3,0,4.5,0.6,6.4,1.6l-1.7,7.2c0.4-9.3,8.6-16.7,18.8-16.7
	S65,78.2,65.3,87.6l-0.5-3.4c1.9-1.1,4.1-1.7,6.5-1.7c2.9,0,5.7,1,7.9,2.6l-1.7,2.5C80.8,81.9,87,78,94,78c4.3,0,8.3,1.4,11.4,3.9"
	/>
</svg>
