<?xml version="1.0" encoding="utf-8"?>
<!-- Generator: Adobe Illustrator 20.1.0, SVG Export Plug-In . SVG Version: 6.00 Build 0)  -->
<svg version="1.1" xmlns="http://www.w3.org/2000/svg" xmlns:xlink="http://www.w3.org/1999/xlink" x="0px" y="0px"
	 viewBox="0 0 30 38" style="enable-background:new 0 0 30 38;" xml:space="preserve">
<style type="text/css">
	.st0{display:none;}
	.st1{display:inline;}
	.st2{fill:#C40B0B;}
	.st3{display:inline;fill:#7127B5;}
	.st4{fill-rule:evenodd;clip-rule:evenodd;fill:#C40B0B;}
</style>
<g id="Layer_1" class="st0">
	<g class="st1">
		<path class="st2" d="M0.7,29.2C0.8,29.2,0.8,29.2,0.7,29.2c0.1,0,0.1,0.1,0.1,0.1c1.2,1.2,2.4,2.3,3.8,3.3
			c0.7,0.5,1.5,0.9,2.3,1.3c0.6,0.3,1.3,0.6,2,0.8c0.4,0.1,0.7,0.2,1.1,0.3c0.2,0,0.4,0.1,0.7,0.1c0.1,0,0.2,0,0.3,0
			c0.1,0,0.3,0,0.4,0c0.2,0,0.5,0,0.7,0c0,0,0.1,0,0.1,0c0.2,0,0.4,0,0.6-0.1c0.2,0,0.5-0.1,0.7-0.2c0.2-0.1,0.4-0.1,0.6-0.3
			c0.2-0.1,0.4-0.2,0.5-0.4c0.1-0.2,0.3-0.3,0.3-0.5c0-0.1,0-0.1,0-0.2c0,0,0-0.1,0-0.1c0,0,0,0,0,0c0,0,0,0,0,0c0,0,0,0,0,0.1
			c0.1,0.3,0.2,0.6,0.5,0.8c0.2,0.2,0.4,0.3,0.6,0.4c0.2,0.1,0.5,0.2,0.7,0.3c0.2,0,0.4,0.1,0.5,0.1c0.2,0,0.4,0,0.6,0
			c0.2,0,0.3,0,0.5,0c0.2,0,0.3,0,0.5,0c0.1,0,0.2,0,0.3,0c0.3,0,0.5-0.1,0.8-0.1c0.2,0,0.4-0.1,0.6-0.1c0.1,0,0.2-0.1,0.4-0.1
			c1.1-0.3,2.2-0.8,3.3-1.4c1-0.6,1.9-1.2,2.8-1.9c0.7-0.5,1.3-1.1,1.9-1.7c0.1-0.1,0.2-0.2,0.3-0.3c0,0,0,0,0.1,0l0,0c0,0,0,0,0,0
			c0,0,0,0-0.1,0.1c-0.4,0.5-0.8,0.9-1.2,1.3c-0.9,0.9-1.9,1.7-2.9,2.5c-0.9,0.7-1.9,1.3-3,1.7c-0.8,0.4-1.6,0.7-2.5,0.9
			c-0.4,0.1-0.8,0.2-1.3,0.3c-0.2,0-0.5,0.1-0.7,0.1c-0.2,0-0.4,0.1-0.7,0.1c-0.1,0-0.3,0-0.4,0c0,0-0.1,0-0.1,0c-0.9,0-1.8,0-2.8,0
			c0,0-0.1,0-0.1,0c-0.1,0-0.3,0-0.4,0c-0.1,0-0.2,0-0.3,0c-0.1,0-0.2,0-0.2,0c-0.2,0-0.4-0.1-0.6-0.1c-0.2,0-0.5-0.1-0.7-0.1
			c-0.6-0.1-1.1-0.3-1.6-0.5c-1.1-0.4-2.2-0.9-3.3-1.5c-0.9-0.5-1.7-1.1-2.5-1.7c-0.8-0.6-1.5-1.3-2.2-2.1C1.4,30,1.1,29.7,0.7,29.2
			C0.8,29.3,0.8,29.3,0.7,29.2C0.7,29.2,0.7,29.2,0.7,29.2L0.7,29.2z"/>
		<path class="st2" d="M16.6,33.7C16.6,33.7,16.6,33.7,16.6,33.7c0.1,0,0.1,0,0.1-0.1c0.8-0.2,1.7-0.5,2.4-0.8
			c0.5-0.2,0.9-0.4,1.4-0.7c0.3-0.2,0.7-0.4,1-0.7c0.3-0.3,0.6-0.6,0.9-1c0.2-0.4,0.4-0.7,0.5-1.2c0.1-0.2,0.1-0.4,0.1-0.6
			c0-0.2,0-0.4,0-0.5c0-0.1,0-0.3,0-0.4c0-0.2-0.1-0.4-0.1-0.6c-0.1-0.3-0.2-0.7-0.3-1c0,0,0,0,0,0c-0.1-0.2-0.2-0.4-0.3-0.6
			c-0.6-1.4-1.2-2.8-1.7-4.2c-1.2-2.8-2.3-5.6-3.5-8.4c-0.8-1.8-1.5-3.7-2.3-5.5c0,0,0-0.1,0-0.1c0,0,0,0,0,0c0,0,0,0.1,0,0.1
			C14.3,8.1,14,9,13.7,9.8c-0.6,1.7-1.3,3.5-1.9,5.2c-0.6,1.6-1.2,3.3-1.8,4.9c-0.5,1.5-1.1,3-1.6,4.4C8.2,24.9,8,25.5,7.8,26
			c-0.1,0.2-0.1,0.3-0.2,0.5c-0.1,0.3-0.1,0.5-0.2,0.8c0,0.3-0.1,0.6,0,1c0,0.6,0.2,1.2,0.5,1.8c0.2,0.3,0.4,0.6,0.7,0.9
			c0.3,0.4,0.7,0.7,1.1,1c0.4,0.3,0.9,0.6,1.4,0.8c0.7,0.3,1.3,0.6,2,0.8c0.2,0.1,0.4,0.1,0.6,0.2c0,0,0.1,0,0.1,0c0,0,0,0,0,0
			c-0.2,0-0.4-0.1-0.6-0.1c-0.2,0-0.5-0.1-0.7-0.1c-0.7-0.2-1.4-0.3-2-0.6c-1.2-0.4-2.4-1-3.5-1.6c-0.7-0.4-1.4-0.9-2.1-1.5
			c-0.2-0.2-0.5-0.4-0.7-0.6c-0.3-0.3-0.8-0.6-1.2-0.7c-0.1,0-0.3-0.1-0.4-0.1c-0.1,0-0.2,0-0.3,0c-0.3,0-0.5,0-0.8,0.1
			c0,0-0.1,0-0.1,0c0,0,0,0,0,0c0,0,0,0,0,0c0,0,0,0,0,0c0.2-0.4,0.3-0.8,0.4-1.2c0.1-0.2,0.1-0.5,0.1-0.7c0-0.2,0-0.4,0.1-0.6
			c0-0.2,0-0.4,0-0.7c0-0.2,0-0.4,0-0.6c0-0.2,0-0.3-0.1-0.5c0-0.2-0.1-0.4-0.1-0.6c-0.1-0.5-0.3-1.1-0.5-1.6c0,0,0-0.1,0-0.1
			c0,0,0,0,0,0c0,0,0,0,0,0c0,0,0,0,0,0c0.5,0.3,1,0.5,1.6,0.7c0.2,0,0.4,0.1,0.6,0.1c0.1,0,0.2,0,0.3,0c0.7,0,1.3-0.2,1.9-0.5
			c0.4-0.2,0.7-0.5,1-0.8c0.3-0.3,0.6-0.7,0.8-1C7.7,19.9,8,19.5,8.2,19c0.1-0.2,0.2-0.4,0.3-0.6c1.1-2.6,2.1-5.2,3.2-7.9
			c0.9-2.3,1.9-4.7,2.8-7c0.2-0.6,0.5-1.2,0.7-1.8c0,0,0-0.1,0-0.1c0,0,0,0,0,0c0,0,0,0.1,0.1,0.1c0.2,0.5,0.4,0.9,0.6,1.4
			c1,2.6,2.1,5.2,3.1,7.7c0.8,2.1,1.7,4.2,2.5,6.4c0.1,0.2,0.2,0.5,0.3,0.7c0.1,0.2,0.2,0.4,0.3,0.7c0.2,0.4,0.4,0.8,0.7,1.2
			c0.2,0.4,0.5,0.7,0.8,1c0.4,0.4,0.8,0.7,1.3,0.9c0.4,0.2,0.7,0.3,1.1,0.4c0.4,0.1,0.7,0.1,1.1,0.1c0.2,0,0.3,0,0.5,0
			c0.5-0.1,1-0.2,1.5-0.3c0,0,0.1,0,0.1,0c0,0,0,0.1,0,0.1c-0.1,0.2-0.2,0.5-0.3,0.7c-0.1,0.4-0.2,0.8-0.3,1.2
			c0,0.2-0.1,0.4-0.1,0.5c0,0.1,0,0.2,0,0.4c0,0.3,0,0.6,0,0.8c0,0.2,0,0.4,0,0.6c0,0.1,0,0.3,0,0.4c0.1,0.4,0.1,0.7,0.2,1.1
			c0.1,0.2,0.1,0.4,0.2,0.7c0,0,0,0.1,0,0.1c0,0,0,0,0,0c0,0,0,0,0,0c-0.2-0.1-0.3-0.1-0.5-0.1c-0.1,0-0.3,0-0.4,0
			c-0.2,0-0.5,0.1-0.7,0.1c-0.2,0.1-0.4,0.2-0.6,0.3c-0.2,0.1-0.5,0.3-0.7,0.5c-0.1,0.1-0.1,0.1-0.2,0.2c-0.4,0.4-0.8,0.8-1.3,1.1
			c-0.6,0.4-1.2,0.8-1.8,1.1c-0.9,0.5-1.9,0.9-2.9,1.3c-0.6,0.2-1.3,0.4-1.9,0.6c-0.3,0.1-0.6,0.1-1,0.2
			C16.8,33.6,16.7,33.7,16.6,33.7L16.6,33.7z"/>
		<path class="st2" d="M0.7,29.2c0,0-0.1-0.1-0.1-0.1l0,0C0.7,29.1,0.7,29.1,0.7,29.2C0.7,29.2,0.7,29.2,0.7,29.2L0.7,29.2z"/>
		<path class="st2" d="M29.3,29.3C29.3,29.3,29.3,29.3,29.3,29.3C29.3,29.2,29.4,29.2,29.3,29.3c0-0.1,0-0.1,0-0.1l0,0
			C29.4,29.2,29.4,29.2,29.3,29.3C29.4,29.2,29.3,29.3,29.3,29.3L29.3,29.3z"/>
		<path class="st2" d="M16.6,33.7C16.5,33.7,16.5,33.7,16.6,33.7C16.5,33.7,16.5,33.7,16.6,33.7C16.6,33.7,16.6,33.7,16.6,33.7z"/>
		<path class="st2" d="M0.7,29.1C0.7,29.1,0.7,29.1,0.7,29.1C0.7,29.1,0.7,29.1,0.7,29.1C0.7,29.1,0.7,29.1,0.7,29.1z"/>
		
			<ellipse transform="matrix(0.9997 -2.640336e-02 2.640336e-02 0.9997 -0.7592 0.7877)" class="st2" cx="29.5" cy="29.1" rx="0" ry="0"/>
		<path class="st2" d="M29.5,29.1C29.4,29.1,29.4,29.1,29.5,29.1L29.5,29.1C29.4,29.2,29.4,29.1,29.5,29.1L29.5,29.1z"/>
		<path class="st2" d="M29.4,29.2C29.4,29.2,29.4,29.2,29.4,29.2L29.4,29.2C29.4,29.2,29.4,29.2,29.4,29.2
			C29.4,29.2,29.4,29.2,29.4,29.2z"/>
		<path class="st2" d="M0.7,29.2C0.7,29.2,0.7,29.2,0.7,29.2L0.7,29.2C0.7,29.2,0.7,29.2,0.7,29.2L0.7,29.2z"/>
		<path class="st2" d="M29.3,29.3C29.3,29.3,29.3,29.3,29.3,29.3L29.3,29.3C29.3,29.3,29.3,29.3,29.3,29.3L29.3,29.3z"/>
	</g>
</g>
<g id="Layer_2" class="st0">
	<path class="st3" d="M14.9,24.3c0,0-3.2-15-12.3-9c0,0-3.7,2.6,1,5.7c0,0-0.4-1.2,0.7-1.8c0,0,5.9-2.4,9.9,5L14.9,24.3z"/>
	<path class="st3" d="M14.9,27.7h-0.7c0,0-4.8,7-7.9,3.4c0,0-0.7-1,0.6-1.9c0,0-2.7,1.7-0.9,3.5C6.1,32.7,9.8,36.2,14.9,27.7z"/>
	<path class="st3" d="M15.2,24.3c0.1-3.4,3-8.8,3-8.8c2.8-5.7-0.8-10.3-0.8-10.3c-1.2-1.4-2.2-4.3-2.2-4.3s-1,2.8-2.2,4.3
		c0,0-3.6,4.6-0.8,10.3C12.2,15.4,15.1,20.9,15.2,24.3z"/>
	<path class="st3" d="M17.4,24.8c0.7,0,1.3,0.6,1.3,1.3c0,0.7-0.6,1.3-1.3,1.3h-4.4c-0.7,0-1.3-0.6-1.3-1.3c0-0.7,0.6-1.3,1.3-1.3
		L17.4,24.8z"/>
	<path class="st3" d="M15.4,24.3c0,0,3.2-15,12.3-9c0,0,3.7,2.6-1,5.7c0,0,0.4-1.2-0.7-1.8c0,0-5.9-2.4-9.9,5L15.4,24.3z"/>
	<path class="st3" d="M15.4,27.7h0.7c0,0,4.8,7,7.9,3.4c0,0,0.7-1-0.6-1.9c0,0,2.7,1.7,0.9,3.5C24.2,32.7,20.5,36.2,15.4,27.7z"/>
	<path class="st3" d="M15.2,28.3c0,0,1.7,3.8,4.8,5.3c0,0-4.7,1.3-4.8,3.9c-0.1-2.6-4.8-3.9-4.8-3.9C13.5,32.1,15.2,28.3,15.2,28.3z
		"/>
</g>
<g id="Layer_3">
	<path class="st4" d="M16.4,13.7c0.1-3.8,0.3-8.4,3.8-12.1c-2.4-0.1-4,0.9-5.1,2.7c-1.1-1.8-2.8-2.8-5.2-2.7
		c3.5,3.7,3.6,8.3,3.8,12.1C10.2,13.5,6.3,13,3.1,10c-0.1,2.4,0.9,4,2.7,5.1C4,16.3,3,18,3.1,20.3c3.2-3,7.1-3.5,10.5-3.7
		c-0.1,5-0.2,15.9-3.8,19.6c2.4,0.1,4-0.9,5.2-2.7c1.1,1.8,2.8,2.8,5.1,2.7c-3.5-3.7-3.6-14.6-3.8-19.6c3.4,0.2,7.4,0.7,10.5,3.7
		c0.1-2.4-0.9-4-2.7-5.2c1.8-1.1,2.8-2.8,2.7-5.1C23.7,13,19.8,13.5,16.4,13.7z"/>
</g>
</svg>
