<?xml version="1.0" encoding="utf-8"?>
<!-- Generator: Adobe Illustrator 20.1.0, SVG Export Plug-In . SVG Version: 6.00 Build 0)  -->
<svg version="1.1" id="Õ_xBA__x2264__x201E__x5F_1"
	 xmlns="http://www.w3.org/2000/svg" xmlns:xlink="http://www.w3.org/1999/xlink" x="0px" y="0px" viewBox="0 0 82.6 82.6"
	 style="enable-background:new 0 0 82.6 82.6;" xml:space="preserve">
<style type="text/css">
	.st0{fill:#FFFFFF;}
</style>
<g>
	<path class="st0" d="M81.9,23.3l-7.1-7.1c-0.4-0.4-1-0.6-1.6-0.6c-0.6,0-1.1,0.2-1.6,0.6c-1.5,1.5-4.1,1.5-5.6,0
		c-0.8-0.8-1.2-1.8-1.2-2.8s0.4-2.1,1.2-2.8c0.4-0.4,0.6-1,0.6-1.6c0-0.6-0.2-1.1-0.6-1.6l-6.8-6.8c-0.9-0.9-2.3-0.9-3.1,0
		c-1.3,1.3-3.6,1.5-5.1,0.4c-0.9-0.6-2.1-0.5-2.8,0.2L1.2,48.4c-0.8,0.8-0.9,1.9-0.2,2.8c1.1,1.5,0.9,3.6-0.4,5
		c-0.8,0.9-0.8,2.2,0,3.1l6.8,6.8c0.8,0.8,2.2,0.9,3.1,0c1.5-1.4,4.1-1.4,5.5,0.1c1.5,1.5,1.6,4,0.1,5.5c-0.8,0.9-0.8,2.2,0,3.1
		l7.1,7.1c0.4,0.4,1,0.6,1.6,0.6c0.5,0,1.1-0.2,1.5-0.6c1.3-1.2,3.3-1.4,4.8-0.5c0.9,0.5,2,0.4,2.7-0.3L81,34
		c0.7-0.7,0.9-1.8,0.3-2.7c-1-1.6-0.7-3.6,0.6-4.9C82.8,25.5,82.8,24.2,81.9,23.3z M76.8,31.9l-45,45c-2.2-0.8-4.7-0.5-6.7,0.6
		L20.6,73c1.7-3.2,1.3-7.2-1.4-9.9c-1.6-1.6-3.7-2.4-5.9-2.4c-1.4,0-2.8,0.4-4,1l-4.2-4.2c1.2-2.2,1.3-4.8,0.4-7.1L50.2,5.6
		c2.3,0.9,5.1,0.8,7.3-0.5l4.1,4.1c-0.7,1.3-1.1,2.7-1.1,4.2c0,2.2,0.9,4.3,2.5,5.9c1.6,1.6,3.7,2.5,5.9,2.5c1.5,0,2.9-0.4,4.2-1.1
		l4.4,4.4C76.3,27.1,76,29.7,76.8,31.9z"/>
	<path class="st0" d="M54.7,41.8l-6-3l1-6.6c0.2-1.5-0.5-3-1.9-3.7c-0.5-0.3-1.1-0.4-1.6-0.4c-0.9,0-1.8,0.4-2.5,1l-4.7,4.7l-6-3
		c-0.5-0.3-1.1-0.4-1.6-0.4c-0.9,0-1.8,0.4-2.5,1c-1.1,1.1-1.3,2.7-0.6,4.1l3,6l-4.7,4.7c-1.1,1.1-1.3,2.7-0.6,4.1
		c0.6,1.2,1.8,1.9,3.1,1.9c0.2,0,0.4,0,0.6,0l6.6-1l3,6c0.6,1.2,1.8,1.9,3.1,1.9c0.2,0,0.4,0,0.6,0c1.5-0.2,2.7-1.4,2.9-2.9l1-6.6
		l6.6-1c1.5-0.2,2.7-1.4,2.9-2.9C56.8,44,56,42.5,54.7,41.8z M44,46.4l-1.4,9.1l-4.2-8.2l-9.1,1.4l6.5-6.5L31.5,34l8.2,4.2l6.5-6.5
		l-1.4,9.1l8.2,4.2L44,46.4z"/>
	<ellipse transform="matrix(0.7071 -0.7071 0.7071 0.7071 3.3869 39.48)" class="st0" cx="49.4" cy="15.7" rx="2.2" ry="2.2"/>
	<ellipse transform="matrix(0.7071 -0.7071 0.7071 0.7071 0.9901 45.2684)" class="st0" cx="55.1" cy="21.4" rx="2.2" ry="2.2"/>
	<ellipse transform="matrix(0.7071 -0.7071 0.7071 0.7071 -1.4067 51.0585)" class="st0" cx="60.9" cy="27.2" rx="2.2" ry="2.2"/>
	<ellipse transform="matrix(0.7071 -0.7071 0.7071 0.7071 -3.8049 56.8466)" class="st0" cx="66.7" cy="33" rx="2.2" ry="2.2"/>
</g>
</svg>
